<?xml version="1.0" encoding="UTF-8"?>
<svg version="1.1" xmlns="http://www.w3.org/2000/svg" width="512" height="512">
<path d="M0 0 C1.71479414 -0.002029 3.42958742 -0.00494722 5.14437866 -0.00869751 C8.70929311 -0.01307976 12.27397958 -0.00682241 15.83886719 0.00732422 C20.36830545 0.02443989 24.89721106 0.0145336 29.42663002 -0.00339317 C32.95805759 -0.01432071 36.48936231 -0.01074439 40.02079391 -0.0030098 C41.68945761 -0.00103383 43.35813312 -0.00337345 45.02678299 -0.01044846 C55.3390029 -0.04460763 64.61946364 0.7441654 74.6484375 3.3984375 C74.6484375 4.0584375 74.6484375 4.7184375 74.6484375 5.3984375 C78.23171503 6.40060814 78.23171503 6.40060814 81.6484375 5.3984375 C81.6484375 3.7484375 81.6484375 2.0984375 81.6484375 0.3984375 C82.6384375 0.3984375 83.6284375 0.3984375 84.6484375 0.3984375 C84.6484375 2.3784375 84.6484375 4.3584375 84.6484375 6.3984375 C85.3084375 6.7284375 85.9684375 7.0584375 86.6484375 7.3984375 C87.25381348 7.71619141 87.85918945 8.03394531 88.48291016 8.36132812 C90.72284095 9.43407063 92.93569128 10.2242458 95.296875 10.9921875 C126.68706834 21.42419139 126.68706834 21.42419139 138.6484375 29.3984375 C138.9784375 28.4084375 139.3084375 27.4184375 139.6484375 26.3984375 C140.0196875 27.1821875 140.3909375 27.9659375 140.7734375 28.7734375 C143.10152474 32.03275963 144.8674103 32.35262147 148.6484375 33.3984375 C149.3084375 34.0584375 149.9684375 34.7184375 150.6484375 35.3984375 C151.3084375 35.5221875 151.9684375 35.6459375 152.6484375 35.7734375 C153.3084375 35.9796875 153.9684375 36.1859375 154.6484375 36.3984375 C155.332142 37.72311496 155.99807936 39.05707383 156.6484375 40.3984375 C158.59864833 41.62371698 158.59864833 41.62371698 160.6484375 42.3984375 C162.6484375 43.3984375 162.6484375 43.3984375 164.43359375 45.20703125 C166.83303563 47.58108221 169.35486614 49.47840944 172.0859375 51.4609375 C188.62646604 63.72549326 204.31301294 77.88955381 216.921875 94.234375 C219.34897176 97.27648271 222.06076766 99.87429953 224.9609375 102.4609375 C229.99961273 107.96832671 234.06818421 114.38218226 236.6484375 121.3984375 C237.3084375 121.3984375 237.9684375 121.3984375 238.6484375 121.3984375 C240.6484375 127.3984375 240.6484375 127.3984375 242.6484375 133.3984375 C243.6384375 133.0684375 244.6284375 132.7384375 245.6484375 132.3984375 C245.7721875 132.9553125 245.8959375 133.5121875 246.0234375 134.0859375 C246.91350781 137.37919764 248.14915341 140.42923898 249.7109375 143.4609375 C250.6484375 145.3984375 250.6484375 145.3984375 251.08227539 147.18017578 C251.75459812 149.81438206 252.67998393 152.2861522 253.64453125 154.828125 C254.03833984 155.87097656 254.43214844 156.91382813 254.83789062 157.98828125 C255.45567383 159.61443359 255.45567383 159.61443359 256.0859375 161.2734375 C256.89816358 163.41627723 257.70939251 165.55949524 258.51953125 167.703125 C258.87974365 168.65171387 259.23995605 169.60030273 259.61108398 170.57763672 C260.685514 173.49925696 261.67861197 176.44061984 262.6484375 179.3984375 C263.3084375 179.3984375 263.9684375 179.3984375 264.6484375 179.3984375 C264.7721875 180.3059375 264.8959375 181.2134375 265.0234375 182.1484375 C265.47495181 185.27811207 265.95560323 188.40199221 266.4609375 191.5234375 C266.62400391 192.53623779 266.78707031 193.54903809 266.95507812 194.5925293 C267.43632158 197.23411528 267.96993851 199.76848032 268.61743164 202.36499023 C272.45483905 218.56039719 272.3302635 234.83891653 272.27978516 251.37817383 C272.27055829 254.66779542 272.28425156 257.95593171 272.32080078 261.24536133 C272.55147257 282.16370123 271.05032934 301.25772018 266.18914795 321.6333313 C265.7164765 324.05049702 265.54425533 326.08148606 265.65087891 328.52709961 C265.6484375 331.3984375 265.6484375 331.3984375 264.26245117 333.07104492 C263.72982666 333.50908447 263.19720215 333.94712402 262.6484375 334.3984375 C261.16494805 337.40041305 260.0987368 340.56358035 258.9609375 343.7109375 C258.64060547 344.55333984 258.32027344 345.39574219 257.99023438 346.26367188 C256.30077155 350.87097029 255.48704333 354.44133088 255.6484375 359.3984375 C254.9884375 360.0584375 254.3284375 360.7184375 253.6484375 361.3984375 C252.94906218 362.71490869 252.28114617 364.04865901 251.6484375 365.3984375 C250.6640165 367.3672795 249.53833085 369.11826039 248.3359375 370.9609375 C245.18948271 375.96252748 242.79637948 381.22990986 240.78515625 386.78125 C239.39561092 389.98054681 237.6006449 392.69710119 235.6484375 395.5859375 C234.9471875 396.63136719 234.2459375 397.67679687 233.5234375 398.75390625 C231.6484375 401.3984375 231.6484375 401.3984375 229.6484375 403.3984375 C228.9678125 404.8215625 228.9678125 404.8215625 228.2734375 406.2734375 C226.68518455 409.3277701 225.09109909 411.03457145 222.6484375 413.3984375 C222.3184375 414.0996875 221.9884375 414.8009375 221.6484375 415.5234375 C220.6484375 417.3984375 220.6484375 417.3984375 218.80859375 418.23828125 C216.09165553 419.69746869 214.93291493 421.36430382 213.0859375 423.8359375 C202.88993322 436.63589644 190.73943099 448.57018397 177.6484375 458.3984375 C176.61976563 459.18605469 175.59109375 459.97367187 174.53125 460.78515625 C170.52888576 463.83128912 166.53843734 466.8316972 162.29296875 469.53515625 C161.42027344 470.15003906 160.54757812 470.76492188 159.6484375 471.3984375 C159.6484375 472.0584375 159.6484375 472.7184375 159.6484375 473.3984375 C158.6584375 473.7284375 157.6684375 474.0584375 156.6484375 474.3984375 C154.97320355 475.72099062 153.30736932 477.05549269 151.6484375 478.3984375 C147.1484375 481.3984375 147.1484375 481.3984375 143.6484375 481.3984375 C141.44701418 483.8375081 141.44701418 483.8375081 139.6484375 486.3984375 C138.6584375 486.0684375 137.6684375 485.7384375 136.6484375 485.3984375 C134.59367931 486.07380558 134.59367931 486.07380558 132.4296875 487.2421875 C131.59026611 487.66072998 130.75084473 488.07927246 129.88598633 488.51049805 C128.98259521 488.96851807 128.0792041 489.42653809 127.1484375 489.8984375 C108.89620725 498.82878689 90.31714951 504.38511517 70.6484375 509.3984375 C70.6484375 510.0584375 70.6484375 510.7184375 70.6484375 511.3984375 C66.67560445 512.69812604 62.64513366 512.56842409 58.51293945 512.59130859 C57.69419846 512.59948608 56.87545746 512.60766357 56.03190613 512.61608887 C53.31685083 512.64092314 50.60184866 512.65747418 47.88671875 512.671875 C46.48272859 512.67986052 46.48272859 512.67986052 45.05037498 512.68800735 C40.07436316 512.71475913 35.09837631 512.73410808 30.12231445 512.74853516 C26.05209209 512.76174258 21.98238688 512.78934253 17.91235352 512.83056641 C-25.21679041 513.25737214 -25.21679041 513.25737214 -46.3515625 507.3984375 C-47.699391 507.06088975 -49.04819099 506.72718322 -50.39819336 506.3984375 C-53.62114847 505.5801381 -56.7958866 504.67919478 -59.9765625 503.7109375 C-61.08209473 503.37916504 -62.18762695 503.04739258 -63.32666016 502.70556641 C-74.73341742 499.16205196 -85.54246281 494.44472293 -96.3515625 489.3984375 C-97.73128308 488.76456226 -99.11144468 488.13164545 -100.4921875 487.5 C-102.60836725 486.52731648 -104.7213085 485.5474887 -106.828125 484.5546875 C-108.48318942 483.79632981 -110.16114372 483.08570208 -111.859375 482.4296875 C-114.6017739 481.29490175 -117.05605006 479.92269644 -119.6015625 478.3984375 C-120.47296875 477.8828125 -121.344375 477.3671875 -122.2421875 476.8359375 C-124.3515625 475.3984375 -124.3515625 475.3984375 -125.3515625 473.3984375 C-126.0115625 473.0684375 -126.6715625 472.7384375 -127.3515625 472.3984375 C-130.3515625 470.3984375 -130.3515625 470.3984375 -132.234375 468.4921875 C-134.43133996 466.31954319 -136.68870178 464.65719812 -139.2265625 462.8984375 C-148.38803631 456.32821164 -157.27651381 449.00970662 -164.921875 440.703125 C-166.33530346 439.27805233 -166.33530346 439.27805233 -168.40625 438.46875 C-170.8902491 437.1020517 -171.10794219 435.933343 -172.3515625 433.3984375 C-174.2273108 431.11482039 -176.25877171 428.98210696 -178.2890625 426.8359375 C-179.09633789 425.9706543 -179.09633789 425.9706543 -179.91992188 425.08789062 C-181.3893965 423.51694797 -182.86254191 421.95086454 -184.3515625 420.3984375 C-184.84342041 419.88289307 -185.33527832 419.36734863 -185.84204102 418.83618164 C-187.49761131 417.17671641 -187.49761131 417.17671641 -190.3515625 415.3984375 C-190.68489583 414.06510417 -191.01822917 412.73177083 -191.3515625 411.3984375 C-193.20406254 408.16082616 -193.20406254 408.16082616 -195.3515625 405.3984375 C-196.0115625 405.3984375 -196.6715625 405.3984375 -197.3515625 405.3984375 C-197.4340625 404.8209375 -197.5165625 404.2434375 -197.6015625 403.6484375 C-198.56704705 400.75198386 -200.14311798 399.47697352 -202.3515625 397.3984375 C-205.3515625 393.86272321 -205.3515625 393.86272321 -205.3515625 390.3984375 C-206.0115625 389.7384375 -206.6715625 389.0784375 -207.3515625 388.3984375 C-208.64576167 385.83139558 -209.83882007 383.22721955 -211.03515625 380.61328125 C-212.21345943 378.08116944 -212.21345943 378.08116944 -215.3515625 377.3984375 C-215.0215625 376.4084375 -214.6915625 375.4184375 -214.3515625 374.3984375 C-215.46090857 371.64462463 -215.46090857 371.64462463 -217.1640625 368.4609375 C-228.4427617 345.58154146 -235.31925109 320.50541567 -239.3515625 295.3984375 C-239.53025879 294.29701416 -239.70895508 293.19559082 -239.89306641 292.06079102 C-240.69969395 285.39587774 -240.5161385 278.65657229 -240.51953125 271.953125 C-240.52274982 270.45435556 -240.52611433 268.95558643 -240.52961731 267.45681763 C-240.53557851 264.32846345 -240.53746012 261.20013679 -240.53686523 258.07177734 C-240.53676333 254.07278732 -240.55045824 250.0739737 -240.56763744 246.07502556 C-240.57877462 242.98486526 -240.58078398 239.89474755 -240.58025551 236.80456924 C-240.58143138 235.3302461 -240.58583103 233.85592171 -240.59358788 232.3816185 C-240.60343072 230.31922843 -240.60049399 228.25722099 -240.59448242 226.19482422 C-240.59590744 225.02426483 -240.59733246 223.85370544 -240.59880066 222.64767456 C-240.34071432 219.25586922 -239.52479208 216.57774232 -238.3515625 213.3984375 C-237.9343216 211.28132625 -237.55823679 209.15562937 -237.2265625 207.0234375 C-237.05898437 205.96382812 -236.89140625 204.90421875 -236.71875 203.8125 C-236.59757813 203.01585937 -236.47640625 202.21921875 -236.3515625 201.3984375 C-236.6815625 201.3984375 -237.0115625 201.3984375 -237.3515625 201.3984375 C-237.3515625 199.7484375 -237.3515625 198.0984375 -237.3515625 196.3984375 C-236.3615625 196.3984375 -235.3715625 196.3984375 -234.3515625 196.3984375 C-235.3415625 193.9234375 -235.3415625 193.9234375 -236.3515625 191.3984375 C-235.3615625 190.4084375 -235.3615625 190.4084375 -234.3515625 189.3984375 C-232.84016683 186.68907581 -231.80794521 183.96357708 -230.87109375 181.01171875 C-230.59724854 180.16335449 -230.32340332 179.31499023 -230.04125977 178.44091797 C-229.75178467 177.54002441 -229.46230957 176.63913086 -229.1640625 175.7109375 C-226.60826946 167.86134295 -223.78241929 160.21075622 -220.4855957 152.6418457 C-219.22407953 149.71427194 -218.3515625 147.6246851 -218.3515625 144.3984375 C-217.3615625 144.0684375 -216.3715625 143.7384375 -215.3515625 143.3984375 C-215.4340625 142.4909375 -215.5165625 141.5834375 -215.6015625 140.6484375 C-215.29057879 136.60564929 -214.17487487 136.13871127 -211.3515625 133.3984375 C-210.65799827 131.07295743 -209.99007038 128.73963305 -209.3515625 126.3984375 C-208.37353271 125.37693972 -207.37135856 124.37824156 -206.3515625 123.3984375 C-205.50573732 122.10716206 -204.69392182 120.79309063 -203.9140625 119.4609375 C-202.02107919 116.33464689 -199.99158882 113.94068506 -197.3515625 111.3984375 C-197.3515625 110.7384375 -197.3515625 110.0784375 -197.3515625 109.3984375 C-196.6915625 108.7384375 -196.0315625 108.0784375 -195.3515625 107.3984375 C-194.8565625 105.9134375 -194.8565625 105.9134375 -194.3515625 104.3984375 C-193.3615625 104.0684375 -192.3715625 103.7384375 -191.3515625 103.3984375 C-190.8565625 101.9134375 -190.8565625 101.9134375 -190.3515625 100.3984375 C-188.86543597 96.62596247 -188.86543597 96.62596247 -186.54296875 95.59765625 C-183.61214689 93.99380186 -182.14230079 91.9087794 -180.1015625 89.2734375 C-176.6361167 84.90445963 -173.00852123 80.98311311 -169 77.1171875 C-167.04665148 75.0805208 -165.77683013 72.82139247 -164.3515625 70.3984375 C-163.77148438 70.12386719 -163.19140625 69.84929687 -162.59375 69.56640625 C-159.62404885 68.01947133 -157.62661552 65.92103182 -155.2265625 63.5859375 C-149.31699097 57.95582118 -142.85331559 53.27110859 -136.14404297 48.6394043 C-135.39268066 48.11515869 -134.64131836 47.59091309 -133.8671875 47.05078125 C-133.18946289 46.58663818 -132.51173828 46.12249512 -131.81347656 45.64428711 C-131.33104492 45.23315674 -130.84861328 44.82202637 -130.3515625 44.3984375 C-130.3515625 43.7384375 -130.3515625 43.0784375 -130.3515625 42.3984375 C-129.7328125 42.2746875 -129.1140625 42.1509375 -128.4765625 42.0234375 C-126.16035418 41.52646394 -126.16035418 41.52646394 -124.3515625 39.3984375 C-123.8565625 38.4084375 -123.8565625 38.4084375 -123.3515625 37.3984375 C-121.734375 36.42578125 -121.734375 36.42578125 -119.4765625 35.3359375 C-118.57421875 34.89894531 -117.671875 34.46195313 -116.7421875 34.01171875 C-115.62328125 33.47933594 -114.504375 32.94695313 -113.3515625 32.3984375 C-111.90879962 31.70454049 -110.46609554 31.01052121 -109.0234375 30.31640625 C-104.14747295 27.97877431 -99.25184161 25.68455735 -94.3515625 23.3984375 C-93.67851074 23.08084473 -93.00545898 22.76325195 -92.31201172 22.43603516 C-73.88294163 13.78217914 -54.23369729 7.68610611 -34.3515625 3.3984375 C-33.24531525 3.15087204 -32.13906799 2.90330658 -30.9992981 2.64823914 C-20.57420701 0.48087482 -10.62582272 -0.04518075 0 0 Z M53.6484375 1.3984375 C53.6484375 1.7284375 53.6484375 2.0584375 53.6484375 2.3984375 C55.6284375 2.3984375 57.6084375 2.3984375 59.6484375 2.3984375 C59.6484375 2.0684375 59.6484375 1.7384375 59.6484375 1.3984375 C57.6684375 1.3984375 55.6884375 1.3984375 53.6484375 1.3984375 Z M59.6484375 2.3984375 C59.6484375 2.7284375 59.6484375 3.0584375 59.6484375 3.3984375 C61.6284375 3.3984375 63.6084375 3.3984375 65.6484375 3.3984375 C65.6484375 3.0684375 65.6484375 2.7384375 65.6484375 2.3984375 C63.6684375 2.3984375 61.6884375 2.3984375 59.6484375 2.3984375 Z M65.6484375 3.3984375 C65.6484375 3.7284375 65.6484375 4.0584375 65.6484375 4.3984375 C67.2984375 4.3984375 68.9484375 4.3984375 70.6484375 4.3984375 C70.6484375 4.0684375 70.6484375 3.7384375 70.6484375 3.3984375 C68.9984375 3.3984375 67.3484375 3.3984375 65.6484375 3.3984375 Z M263.6484375 183.3984375 C264.6484375 186.3984375 264.6484375 186.3984375 264.6484375 186.3984375 Z M263.6484375 327.3984375 C264.6484375 330.3984375 264.6484375 330.3984375 264.6484375 330.3984375 Z M253.6484375 356.3984375 C254.6484375 358.3984375 254.6484375 358.3984375 254.6484375 358.3984375 Z M59.6484375 510.3984375 C59.6484375 510.7284375 59.6484375 511.0584375 59.6484375 511.3984375 C61.6284375 511.3984375 63.6084375 511.3984375 65.6484375 511.3984375 C65.6484375 511.0684375 65.6484375 510.7384375 65.6484375 510.3984375 C63.6684375 510.3984375 61.6884375 510.3984375 59.6484375 510.3984375 Z " fill="#212121" transform="translate(240.3515625,-0.3984375)"/>
<path d="M0 0 C13.51383614 0 13.51383614 0 18.4375 0.76953125 C19.51773438 0.93646484 20.59796875 1.10339844 21.7109375 1.27539062 C22.79632813 1.45263672 23.88171875 1.62988281 25 1.8125 C26.62808594 2.0609668 26.62808594 2.0609668 28.2890625 2.31445312 C46.33581479 5.1679074 46.33581479 5.1679074 52 8 C52 78.29 52 148.58 52 221 C72.79 221 93.58 221 115 221 C115 235.19 115 249.38 115 264 C94.54 264 74.08 264 53 264 C54.98 274.395 54.98 274.395 57 285 C57.79689889 292.96898887 58.21784192 300.68178051 58.24023438 308.65722656 C58.24991989 310.732833 58.28104003 312.8074376 58.3125 314.8828125 C58.41058746 327.15139578 56.14331842 338.58644335 52.1875 350.1875 C51.79848511 351.3314624 51.79848511 351.3314624 51.40161133 352.49853516 C43.62682433 374.65515086 28.09822509 390.69460905 7.625 401.5625 C5.09378115 402.75562959 2.57051701 403.8996962 0 405 C-0.79599609 405.34482422 -1.59199219 405.68964844 -2.41210938 406.04492188 C-18.48739749 412.81029069 -33.67138554 414.59032895 -51 415 C-52.17820312 415.04092773 -53.35640625 415.08185547 -54.5703125 415.12402344 C-83.33978599 416.08037132 -116.62628521 412.99996132 -140 394 C-141 391 -141 391 -140.13891602 388.86206055 C-139.68186279 388.04519775 -139.22480957 387.22833496 -138.75390625 386.38671875 C-138.24972168 385.4743042 -137.74553711 384.56188965 -137.22607422 383.62182617 C-136.67709473 382.65349854 -136.12811523 381.6851709 -135.5625 380.6875 C-135.01352051 379.70305908 -134.46454102 378.71861816 -133.89892578 377.7043457 C-132.79193661 375.72346033 -131.68032168 373.74515249 -130.56396484 371.76953125 C-129.19333256 369.342361 -127.8372954 366.90797197 -126.48828125 364.46875 C-121.28381204 355.14190602 -121.28381204 355.14190602 -119 354 C-112.5058007 352.89460437 -109.23291951 355.56404789 -103.9296875 359.12109375 C-89.5565412 368.33907158 -73.16052613 369.24757421 -56.5625 369.375 C-55.39009766 369.38893799 -54.21769531 369.40287598 -53.00976562 369.41723633 C-45.54797386 369.37649909 -39.07936309 368.33470735 -32 366 C-30.9171875 365.66585083 -30.9171875 365.66585083 -29.8125 365.32495117 C-17.90582447 361.54798177 -8.85941412 353.71835262 -3.12597656 342.78735352 C2.89741289 330.91450704 4.19746689 320.15400687 4.1875 307.0625 C4.18669434 305.96236572 4.18588867 304.86223145 4.18505859 303.72875977 C4.10745377 293.30156275 3.57884659 282.91690492 0.9296875 272.78515625 C0 269 0 269 0 265 C-37.95 265 -75.9 265 -115 265 C-115 250.48 -115 235.96 -115 221 C-77.05 221 -39.1 221 0 221 C0 148.07 0 75.14 0 0 Z " fill="#FDFDFD" transform="translate(271,2)"/>
<path d="M0 0 C1.22846174 4.29063609 0.99594567 8.14665731 0.75 12.5625 C0.70939453 13.71395508 0.70939453 13.71395508 0.66796875 14.88867188 C0.43290783 19.23729897 0.0602184 21.04997027 -3 24 C-4.48348945 27.00197555 -5.5497007 30.16514285 -6.6875 33.3125 C-7.00783203 34.15490234 -7.32816406 34.99730469 -7.65820312 35.86523438 C-9.34766595 40.47253279 -10.16139417 44.04289338 -10 49 C-10.99 49.99 -10.99 49.99 -12 51 C-12.69937532 52.31647119 -13.36729133 53.65022151 -14 55 C-14.984421 56.968842 -16.11010665 58.71982289 -17.3125 60.5625 C-20.45895479 65.56408998 -22.85205802 70.83147236 -24.86328125 76.3828125 C-26.25282658 79.58210931 -28.0477926 82.29866369 -30 85.1875 C-30.70125 86.23292969 -31.4025 87.27835937 -32.125 88.35546875 C-34 91 -34 91 -36 93 C-36.45375 93.94875 -36.9075 94.8975 -37.375 95.875 C-38.96325295 98.9293326 -40.55733841 100.63613395 -43 103 C-43.33 103.70125 -43.66 104.4025 -44 105.125 C-45 107 -45 107 -46.83984375 107.83984375 C-49.55678197 109.29903119 -50.71552257 110.96586632 -52.5625 113.4375 C-62.75850428 126.23745894 -74.90900651 138.17174647 -88 148 C-89.54300781 149.18142578 -89.54300781 149.18142578 -91.1171875 150.38671875 C-95.11955174 153.43285162 -99.11000016 156.4332597 -103.35546875 159.13671875 C-104.22816406 159.75160156 -105.10085938 160.36648438 -106 161 C-106 161.66 -106 162.32 -106 163 C-106.99 163.33 -107.98 163.66 -109 164 C-110.67523395 165.32255312 -112.34106818 166.65705519 -114 168 C-118.5 171 -118.5 171 -122 171 C-124.20142332 173.4390706 -124.20142332 173.4390706 -126 176 C-126.99 175.67 -127.98 175.34 -129 175 C-131.05475819 175.67536808 -131.05475819 175.67536808 -133.21875 176.84375 C-134.05817139 177.26229248 -134.89759277 177.68083496 -135.76245117 178.11206055 C-136.66584229 178.57008057 -137.5692334 179.02810059 -138.5 179.5 C-156.75223025 188.43034939 -175.33128799 193.98667767 -195 199 C-195 199.66 -195 200.32 -195 201 C-199.09680565 202.14404987 -203.04053531 202.12609467 -207.265625 202.09765625 C-208.05902283 202.0962413 -208.85242065 202.09482635 -209.66986084 202.09336853 C-212.19661272 202.08778415 -214.72327504 202.07523454 -217.25 202.0625 C-218.96614455 202.05748298 -220.68229049 202.05292043 -222.3984375 202.04882812 C-226.59899269 202.03781984 -230.79948117 202.02056596 -235 202 C-235 201.67 -235 201.34 -235 201 C-233.72382813 200.86722656 -232.44765625 200.73445312 -231.1328125 200.59765625 C-229.46352004 200.41947335 -227.79425036 200.24107686 -226.125 200.0625 C-225.28324219 199.97548828 -224.44148438 199.88847656 -223.57421875 199.79882812 C-222.76855469 199.71181641 -221.96289062 199.62480469 -221.1328125 199.53515625 C-220.38918457 199.456604 -219.64555664 199.37805176 -218.87939453 199.29711914 C-216.91553684 199.08362653 -216.91553684 199.08362653 -215 198 C-213.31335214 197.9176501 -211.62548293 197.8602088 -209.9375 197.8125 C-202.81904164 197.32515324 -196.05486642 195.78746414 -189.125 194.125 C-188.043396 193.86823486 -186.96179199 193.61146973 -185.84741211 193.34692383 C-180.27632509 191.97432467 -175.2119728 190.37978306 -170 188 C-168.62593614 187.48430446 -167.24659094 186.98254216 -165.86328125 186.4921875 C-149.65480353 180.74372827 -133.96102233 174.30271375 -119.37841797 165.09838867 C-115.87694505 162.91939581 -114.23199766 162 -110 162 C-109.67 161.01 -109.34 160.02 -109 159 C-106.98828125 157.34375 -106.98828125 157.34375 -104.3125 155.5 C-92.474655 147.1078408 -81.46840404 138.04849604 -71 128 C-70.48695313 127.51418457 -69.97390625 127.02836914 -69.4453125 126.52783203 C-61.99116346 119.4497013 -55.51071621 111.93003858 -49.3203125 103.73046875 C-48.03859762 102.050588 -46.72912709 100.39758328 -45.40625 98.75 C-39.15397429 90.917571 -33.92063171 82.72313578 -29 74 C-28.63551758 73.36674805 -28.27103516 72.73349609 -27.89550781 72.08105469 C-17.37838042 53.71089131 -8.35023527 32.7472759 -4 12 C-3.67 11.67 -3.34 11.34 -3 11 C-2.76924918 9.65252916 -2.58846937 8.29622435 -2.4375 6.9375 C-2.293125 5.638125 -2.14875 4.33875 -2 3 C-1.34 3 -0.68 3 0 3 C0 2.01 0 1.02 0 0 Z M-2 17 C-1 20 -1 20 -1 20 Z M-12 46 C-11 48 -11 48 -11 48 Z M-206 200 C-206 200.33 -206 200.66 -206 201 C-204.02 201 -202.04 201 -200 201 C-200 200.67 -200 200.34 -200 200 C-201.98 200 -203.96 200 -206 200 Z " fill="#14200F" transform="translate(506,310)"/>
<path d="M0 0 C4.01602381 -0.07551829 8.03175927 -0.12922898 12.04833984 -0.16479492 C14.06753112 -0.18687167 16.08652642 -0.22503657 18.10546875 -0.26367188 C27.21291469 -0.33096827 35.19520216 0.71597124 44 3 C44 3.66 44 4.32 44 5 C47.58327753 6.00217064 47.58327753 6.00217064 51 5 C51 3.35 51 1.7 51 0 C51.99 0 52.98 0 54 0 C54 1.98 54 3.96 54 6 C55.30835987 6.65417994 56.62075532 7.30036548 57.9375 7.9375 C60 9 60 9 63 11 C60.03 10.67 57.06 10.34 54 10 C54 79.96 54 149.92 54 222 C74.13 222 94.26 222 115 222 C115 222.33 115 222.66 115 223 C94.21 223 73.42 223 52 223 C52 152.71 52 82.42 52 10 C31.72712382 5.95883443 31.72712382 5.95883443 11.375 3.1875 C10.25222656 3.06697266 9.12945312 2.94644531 7.97265625 2.82226562 C5.31595335 2.53842985 2.65872944 2.26403163 0 2 C0 1.34 0 0.68 0 0 Z M23 1 C23 1.33 23 1.66 23 2 C24.98 2 26.96 2 29 2 C29 1.67 29 1.34 29 1 C27.02 1 25.04 1 23 1 Z M29 2 C29 2.33 29 2.66 29 3 C30.98 3 32.96 3 35 3 C35 2.67 35 2.34 35 2 C33.02 2 31.04 2 29 2 Z M35 3 C35 3.33 35 3.66 35 4 C36.65 4 38.3 4 40 4 C40 3.67 40 3.34 40 3 C38.35 3 36.7 3 35 3 Z " fill="#656665" transform="translate(271,0)"/>
<path d="M0 0 C3.1451558 1.40172132 5.32153888 3.07428048 7.8125 5.4375 C11.94465793 9.18463157 16.26681606 12.56542442 20.75 15.875 C21.38784424 16.35122803 22.02568848 16.82745605 22.68286133 17.31811523 C25.32815433 19.25037445 27.64355402 20.85886388 30.703125 22.0703125 C33 23 33 23 34.82421875 24.83984375 C37.7939228 27.78822138 41.16093041 29.56307178 44.8125 31.5625 C45.49892578 31.94857422 46.18535156 32.33464844 46.89257812 32.73242188 C51.16533546 35.10527765 55.48445234 37.11683439 60 39 C61.26167872 39.58171013 62.52069389 40.1692232 63.77734375 40.76171875 C78.59023126 47.66150948 94.07893809 53.25609233 110 57 C110 57.66 110 58.32 110 59 C110.67546875 59.06058594 111.3509375 59.12117188 112.046875 59.18359375 C112.93890625 59.26738281 113.8309375 59.35117187 114.75 59.4375 C115.63171875 59.51871094 116.5134375 59.59992188 117.421875 59.68359375 C120 60 120 60 121.875 60.5 C124.97887473 61.23032347 128.07137897 61.35647827 131.25 61.5625 C132.51328125 61.64628906 133.7765625 61.73007812 135.078125 61.81640625 C136.04234375 61.87699219 137.0065625 61.93757813 138 62 C138 62.66 138 63.32 138 64 C143.61 64.33 149.22 64.66 155 65 C155 65.33 155 65.66 155 66 C121.49106977 67.58559607 89.08219333 57.04403124 59 43 C57.62027942 42.36612476 56.24011782 41.73320795 54.859375 41.1015625 C52.74319525 40.12887898 50.630254 39.1490512 48.5234375 38.15625 C46.86837308 37.39789231 45.19041878 36.68726458 43.4921875 36.03125 C40.7497886 34.89646425 38.29551244 33.52425894 35.75 32 C34.87859375 31.484375 34.0071875 30.96875 33.109375 30.4375 C31 29 31 29 30 27 C29.34 26.67 28.68 26.34 28 26 C25 24 25 24 22.6875 21.0625 C19.06885404 16.69453847 14.6444303 13.44640543 10.11401367 10.08422852 C6.12309841 7.07415468 3.0697991 3.95185858 0 0 Z " fill="#14200E" transform="translate(85,446)"/>
<path d="M0 0 C0.33 0 0.66 0 1 0 C1.05534912 0.57032959 1.11069824 1.14065918 1.16772461 1.72827148 C1.41973743 4.29848753 1.67852728 6.86797631 1.9375 9.4375 C2.02451172 10.33533203 2.11152344 11.23316406 2.20117188 12.15820312 C2.28818359 13.01220703 2.37519531 13.86621094 2.46484375 14.74609375 C2.543396 15.53685303 2.62194824 16.3276123 2.70288086 17.14233398 C2.81551499 19.01103348 2.81551499 19.01103348 4 20 C4.32446337 23.10042773 4.51334441 26.2020725 4.71875 29.3125 C4.70607799 31.91596752 4.70607799 31.91596752 6 33 C6.30169671 35.12083823 6.5655519 37.24709203 6.8125 39.375 C7.58626422 45.04353939 8.84046114 49.95727441 10.9453125 55.2578125 C12.04614334 58.11997268 12.9027421 60.99084199 13.75 63.9375 C15.78357478 70.71878324 18.44989631 77.18754703 21.12988281 83.73120117 C23.55631731 89.71851454 25.60813666 95.67862065 27 102 C27.66 102 28.32 102 29 102 C29.46055786 102.85380249 29.46055786 102.85380249 29.93041992 103.72485352 C31.34464094 106.34003369 32.76600977 108.95126442 34.1875 111.5625 C34.67025391 112.45775391 35.15300781 113.35300781 35.65039062 114.27539062 C38.4768261 119.45402744 41.45842445 124.28005745 45 129 C44.67 129.66 44.34 130.32 44 131 C43.566875 130.505 43.13375 130.01 42.6875 129.5 C41.00259517 127.66781808 41.00259517 127.66781808 38 128 C34 122.85714286 34 122.85714286 34 119 C33.01 118.01 33.01 118.01 32 117 C30.70580083 114.43295808 29.51274243 111.82878205 28.31640625 109.21484375 C27.13810307 106.68273194 27.13810307 106.68273194 24 106 C24.495 104.515 24.495 104.515 25 103 C23.89065393 100.24618713 23.89065393 100.24618713 22.1875 97.0625 C8.28439125 68.85936011 -4.14461246 31.81787102 0 0 Z " fill="#1B2714" transform="translate(1,271)"/>
<path d="M0 0 C5.58490476 4.44512827 9.79211991 9.24454091 14 15 C14.99 14.67 15.98 14.34 17 14 C18.41733536 16.0412052 19.83388271 18.08294998 21.25 20.125 C21.64574219 20.69476563 22.04148437 21.26453125 22.44921875 21.8515625 C23.24361906 22.99758262 24.03593869 24.14504781 24.82617188 25.29394531 C25.60918812 26.43198972 26.39696794 27.56677114 27.18945312 28.69824219 C30 32.77527006 30 32.77527006 30 35 C30.66 35 31.32 35 32 35 C33.33333333 39 34.66666667 43 36 47 C36.99 46.67 37.98 46.34 39 46 C39.12375 46.556875 39.2475 47.11375 39.375 47.6875 C40.26507031 50.98076014 41.50071591 54.03080148 43.0625 57.0625 C44 59 44 59 44.40234375 60.73828125 C45.17326845 63.65570216 46.34483176 66.33782081 47.5 69.125 C49.72720434 74.80533383 50.84888071 79.91401414 51 86 C48.40672951 84.70336475 48.31722847 83.72954861 47.30078125 81.0546875 C46.98238281 80.23242676 46.66398437 79.41016602 46.3359375 78.56298828 C45.99820313 77.67595215 45.66046875 76.78891602 45.3125 75.875 C35.17126364 49.94570248 21.75541909 27.34612733 3.49365234 6.26074219 C0 2.20304256 0 2.20304256 0 0 Z " fill="#121E0D" transform="translate(447,86)"/>
<path d="M0 0 C-0.33 73.26 -0.66 146.52 -1 222 C-1.33 222 -1.66 222 -2 222 C-2 149.4 -2 76.8 -2 2 C-2.66 1.67 -3.32 1.34 -4 1 C-2 0 -2 0 0 0 Z " fill="#292929" transform="translate(271,0)"/>
<path d="M0 0 C0.50015625 0.38027344 1.0003125 0.76054687 1.515625 1.15234375 C-2.19045525 3.11371545 -5.8517861 4.68631307 -9.83666992 5.98974609 C-26.17686244 11.34246577 -42.06859997 18.69449748 -56.77734375 27.59375 C-59.29716312 29.04455509 -61.75935967 30.15101271 -64.484375 31.15234375 C-63.494375 29.83234375 -62.504375 28.51234375 -61.484375 27.15234375 C-61.814375 26.49234375 -62.144375 25.83234375 -62.484375 25.15234375 C-45.42593221 16.56496857 -28.15354199 8.23715297 -10.234375 1.58984375 C-9.51878418 1.31374268 -8.80319336 1.0376416 -8.06591797 0.75317383 C-3.05735455 -1.04315399 -3.05735455 -1.04315399 0 0 Z " fill="#131F0E" transform="translate(181.484375,10.84765625)"/>
<path d="M0 0 C4.01602381 -0.07551829 8.03175927 -0.12922898 12.04833984 -0.16479492 C14.06753112 -0.18687167 16.08652642 -0.22503657 18.10546875 -0.26367188 C27.21291469 -0.33096827 35.19520216 0.71597124 44 3 C44 3.66 44 4.32 44 5 C47.58327753 6.00217064 47.58327753 6.00217064 51 5 C51 3.35 51 1.7 51 0 C51.99 0 52.98 0 54 0 C54 1.98 54 3.96 54 6 C54.66 6.33 55.32 6.66 56 7 C55 9 55 9 52.90625 9.734375 C49.18476487 10.07451074 46.0536861 9.21850547 42.5 8.25 C28.61690341 4.72678336 14.29167021 2.858092 0 2 C0 1.34 0 0.68 0 0 Z M23 1 C23 1.33 23 1.66 23 2 C24.98 2 26.96 2 29 2 C29 1.67 29 1.34 29 1 C27.02 1 25.04 1 23 1 Z M29 2 C29 2.33 29 2.66 29 3 C30.98 3 32.96 3 35 3 C35 2.67 35 2.34 35 2 C33.02 2 31.04 2 29 2 Z M35 3 C35 3.33 35 3.66 35 4 C36.65 4 38.3 4 40 4 C40 3.67 40 3.34 40 3 C38.35 3 36.7 3 35 3 Z " fill="#837D8B" transform="translate(271,0)"/>
<path d="M0 0 C0.66 0.33 1.32 0.66 2 1 C0.0635395 2.64706895 -1.87412868 4.29268206 -3.8125 5.9375 C-4.40635498 6.4425708 -5.00020996 6.9476416 -5.61206055 7.46801758 C-9.12624653 10.44734417 -12.69094179 13.33883531 -16.3125 16.1875 C-28.21071916 25.91451128 -38.54800614 37.0944987 -47.75195312 49.36279297 C-51.03981482 53.67586036 -54.54546732 57.82044194 -58 62 C-58 57.90252747 -55.88410701 55.88052325 -53.4375 52.8125 C-52.75892944 51.94347046 -52.75892944 51.94347046 -52.06665039 51.05688477 C-48.96377619 47.11471303 -45.72745111 43.3285307 -42.27734375 39.68359375 C-40.87380543 38.07579267 -40.87380543 38.07579267 -40.55859375 36.03125 C-39.78554045 33.22014708 -38.24834917 32.02640354 -36.125 30.0625 C-33.13564165 27.20612022 -31.09795056 24.56651596 -29 21 C-27.0625 19.875 -27.0625 19.875 -25 19 C-24.34 18.505 -23.68 18.01 -23 17.5 C-21 16 -21 16 -19.28125 15.24609375 C-15.99841412 13.45290086 -13.30869323 11.00498039 -10.5 8.5625 C-3.55594656 2.57108881 -3.55594656 2.57108881 0 0 Z " fill="#0E1C0A" transform="translate(105,49)"/>
<path d="M0 0 C2.80194381 2.66822849 5.04236207 5.34744143 7.1875 8.5625 C22.6693079 30.99800128 42.78162024 49.17448792 64 66 C59.8047565 66 57.68811236 63.71505879 54.5625 61.1875 C53.94648926 60.69701172 53.33047852 60.20652344 52.69580078 59.70117188 C47.42874784 55.45725444 42.44428931 50.95023431 37.5234375 46.3125 C35.41759883 44.38269119 33.2876539 42.69884846 31 41 C26.79071375 37.01824273 23.16718888 32.44193002 19.52734375 27.9453125 C19.09043213 27.40898193 18.65352051 26.87265137 18.20336914 26.32006836 C16.91954802 24.74224961 15.64322752 23.15833697 14.3671875 21.57421875 C12.21730333 19.23630841 10.83463544 18.23774806 8 17 C7.62243192 15.67851173 7.2981424 14.34164079 7 13 C5.14749996 9.76238866 5.14749996 9.76238866 3 7 C2.34 7 1.68 7 1 7 C0.67 4.69 0.34 2.38 0 0 Z " fill="#202C1B" transform="translate(42,398)"/>
<path d="M0 0 C0.99 0.33 1.98 0.66 3 1 C1.36053193 6.40060072 -0.94729296 11.39148285 -3.3125 16.5 C-6.63480978 23.74280833 -9.56628201 30.96572131 -12.02734375 38.54296875 C-13 41 -13 41 -15 42 C-15.52320713 34.9775793 -13.79270199 30.07957972 -11 23.6875 C-10.24555888 21.92246461 -9.49535657 20.15560962 -8.75 18.38671875 C-8.41484375 17.61545654 -8.0796875 16.84419434 -7.734375 16.04956055 C-6.83134529 13.8921623 -6.83134529 13.8921623 -7 11 C-6.01 10.67 -5.02 10.34 -4 10 C-4.0825 9.0925 -4.165 8.185 -4.25 7.25 C-4 4 -4 4 -2 1.625 C-1.34 1.08875 -0.68 0.5525 0 0 Z " fill="#172312" transform="translate(29,133)"/>
<path d="M0 0 C5.10018883 1.56853003 8.65938805 4.70629481 12.6875 8.0625 C13.40156006 8.6517627 14.11562012 9.24102539 14.85131836 9.84814453 C30.8189445 23.0915306 45.58893297 37.33699334 58 54 C57.505 54.99 57.505 54.99 57 56 C56.26136719 55.12859375 55.52273438 54.2571875 54.76171875 53.359375 C42.3969195 38.8214931 29.94882935 24.95096114 15 13 C13.01818549 11.39910568 11.03894997 9.79501264 9.0625 8.1875 C8.18722656 7.47980469 7.31195313 6.77210937 6.41015625 6.04296875 C4.14962639 4.1268308 2.0606651 2.12760086 0 0 Z " fill="#222E1D" transform="translate(404,46)"/>
<path d="M0 0 C0.33 0 0.66 0 1 0 C1.05534912 0.57032959 1.11069824 1.14065918 1.16772461 1.72827148 C1.41973743 4.29848753 1.67852728 6.86797631 1.9375 9.4375 C2.02451172 10.33533203 2.11152344 11.23316406 2.20117188 12.15820312 C2.28818359 13.01220703 2.37519531 13.86621094 2.46484375 14.74609375 C2.543396 15.53685303 2.62194824 16.3276123 2.70288086 17.14233398 C2.81551499 19.01103348 2.81551499 19.01103348 4 20 C4.32446337 23.10042773 4.51334441 26.2020725 4.71875 29.3125 C4.70607799 31.91596752 4.70607799 31.91596752 6 33 C6.37768273 35.20118218 6.70178039 37.41165134 7 39.625 C7.165 40.83414063 7.33 42.04328125 7.5 43.2890625 C7.665 44.51367188 7.83 45.73828125 8 47 C8.32907681 49.33396602 8.66414337 51.66699592 9 54 C7.03228695 51.04843042 6.45742228 49.29300143 5.7109375 45.89453125 C5.38222656 44.42016602 5.38222656 44.42016602 5.046875 42.91601562 C4.82515625 41.89185547 4.6034375 40.86769531 4.375 39.8125 C4.03082031 38.25885742 4.03082031 38.25885742 3.6796875 36.67382812 C3.11413818 34.11707389 2.55448222 31.55917309 2 29 C1.67 29 1.34 29 1 29 C-1.06170091 19.04931133 -0.95192877 10.0209799 0 0 Z " fill="#131F0D" transform="translate(1,271)"/>
<path d="M0 0 C3.1451558 1.40172132 5.32153888 3.07428048 7.8125 5.4375 C11.94465793 9.18463157 16.26681606 12.56542442 20.75 15.875 C21.38784424 16.35122803 22.02568848 16.82745605 22.68286133 17.31811523 C26.04336395 19.77280064 29.09785219 21.49756876 33 23 C35.3125 25.625 35.3125 25.625 37 28 C35.02 28.99 35.02 28.99 33 30 C32.34 29.34 31.68 28.68 31 28 C30.01 27.34 29.02 26.68 28 26 C25 24 25 24 22.6875 21.0625 C19.06885404 16.69453847 14.6444303 13.44640543 10.11401367 10.08422852 C6.12309841 7.07415468 3.0697991 3.95185858 0 0 Z " fill="#111F0C" transform="translate(85,446)"/>
<path d="M0 0 C2 1 2 1 3.21875 4.23828125 C3.65331924 5.59397731 4.08007476 6.95219672 4.5 8.3125 C6.02309179 13.33033096 6.02309179 13.33033096 8.08203125 18.140625 C9.262171 20.53103573 9.70454067 22.81935203 10.1875 25.4375 C10.36667969 26.36433594 10.54585938 27.29117188 10.73046875 28.24609375 C11.00844611 31.08629724 10.70393289 33.24917005 10 36 C9.34 36 8.68 36 8 36 C7.896875 34.72382813 7.79375 33.44765625 7.6875 32.1328125 C7.09678297 26.81843918 5.63728053 21.94902504 4 16.875 C2.19862615 11.24145819 0.6386113 5.89118928 0 0 Z " fill="#121F0C" transform="translate(498,173)"/>
<path d="M0 0 C4.01602381 -0.07551829 8.03175927 -0.12922898 12.04833984 -0.16479492 C14.06753112 -0.18687167 16.08652642 -0.22503657 18.10546875 -0.26367188 C27.21291469 -0.33096827 35.19520216 0.71597124 44 3 C40.48140128 3.99763722 38.22122413 3.83311946 34.625 3.0625 C30.67084171 2.2737857 27.0508864 1.78103317 23 2 C23.99 2.66 24.98 3.32 26 4 C17.32745081 3.39702691 8.66149795 2.74558682 0 2 C0 1.34 0 0.68 0 0 Z " fill="#7B7680" transform="translate(271,0)"/>
<path d="M0 0 C0.33 0 0.66 0 1 0 C1.05899621 3.77076545 1.09392568 7.54140926 1.125 11.3125 C1.14175781 12.36501953 1.15851562 13.41753906 1.17578125 14.50195312 C1.21920196 21.55781803 0.5223667 28.10987473 -1 35 C-1.66 35 -2.32 35 -3 35 C-3.33 36.32 -3.66 37.64 -4 39 C-3.32343391 30.22783168 -2.42936471 21.49169758 -1.4375 12.75 C-1.29892578 11.51636719 -1.16035156 10.28273438 -1.01757812 9.01171875 C-0.67991005 6.00763726 -0.34069305 3.00373966 0 0 Z " fill="#101C09" transform="translate(511,270)"/>
<path d="M0 0 C4.91871986 0.61846379 8.84721354 2.75326348 13.1875 5 C14.27321289 5.55300781 14.27321289 5.55300781 15.38085938 6.1171875 C17.25638849 7.07327118 19.12843676 8.03617609 21 9 C21.66 9.33 22.32 9.66 23 10 C23.33 9.01 23.66 8.02 24 7 C24.680625 8.2065625 24.680625 8.2065625 25.375 9.4375 C26.74725665 12.08856572 26.74725665 12.08856572 29 13 C29 13.66 29 14.32 29 15 C24.96530333 13.72451525 21.19173454 12.2387032 17.3828125 10.3984375 C15.85527344 9.66367187 15.85527344 9.66367187 14.296875 8.9140625 C13.25015625 8.40617187 12.2034375 7.89828125 11.125 7.375 C10.05507813 6.859375 8.98515625 6.34375 7.8828125 5.8125 C5.25364318 4.54486479 2.62611698 3.2739434 0 2 C0 1.34 0 0.68 0 0 Z " fill="#25311F" transform="translate(356,19)"/>
<path d="M0 0 C3.21159254 2.73988988 4.99909422 6.29299304 7 9.9375 C9.13058315 13.79417589 11.23428933 17.5515045 14 21 C13.67 21.66 13.34 22.32 13 23 C12.566875 22.505 12.13375 22.01 11.6875 21.5 C10.00259517 19.66781808 10.00259517 19.66781808 7 20 C3.34928631 15.38292092 2 11.80888298 2 6 C1.36893571 3.98848259 0.70626239 1.98636298 0 0 Z " fill="#121F0D" transform="translate(32,379)"/>
<path d="M0 0 C0.33 0 0.66 0 1 0 C1.18458616 5.35299864 0.71846502 8.89370393 -1 14 C-1.62586442 16.77697346 -2.12833366 19.57238281 -2.625 22.375 C-2.7590625 23.11105469 -2.893125 23.84710938 -3.03125 24.60546875 C-3.35806327 26.40294172 -3.67958011 28.20137633 -4 30 C-4.33 30 -4.66 30 -5 30 C-6.41814033 22.48385628 -6.35879738 14.53819608 -2 8 C-1.33841957 5.95415921 -1.33841957 5.95415921 -0.875 3.8125 C-0.58625 2.554375 -0.2975 1.29625 0 0 Z " fill="#14210D" transform="translate(8,191)"/>
<path d="M0 0 C0 0.99 0 1.98 0 3 C0.33 3.33 0.66 3.66 1 4 C1 4.99 1 5.98 1 7 C0.10539062 7.3815625 -0.78921875 7.763125 -1.7109375 8.15625 C-5.35132269 10.19694099 -7.11256462 12.19743477 -9.625 15.5 C-12.19927391 18.86010489 -14.46969226 21.63581201 -18 24 C-16.36934844 20.19514636 -13.92774822 17.38215398 -11.25 14.25 C-7.32470066 9.62147113 -3.55795272 4.91749563 0 0 Z " fill="#0C1B08" transform="translate(466,402)"/>
<path d="M0 0 C1.62580966 0.11398665 3.25067157 0.24155659 4.875 0.375 C5.77992188 0.44460937 6.68484375 0.51421875 7.6171875 0.5859375 C10 1 10 1 12 3 C14.06874034 3.6425235 14.06874034 3.6425235 16 4 C16.33 5.98 16.66 7.96 17 10 C12.97683781 8.51463956 9.38707358 6.60123107 5.6875 4.4375 C4.61886719 3.81746094 3.55023438 3.19742188 2.44921875 2.55859375 C1.64097656 2.04425781 0.83273437 1.52992187 0 1 C0 0.67 0 0.34 0 0 Z " fill="#121E0D" transform="translate(379,32)"/>
<path d="M0 0 C0.66 0.33 1.32 0.66 2 1 C1.09476787 5.2002771 -0.90282094 8.57966461 -3.0625 12.25 C-3.43955078 12.8996875 -3.81660156 13.549375 -4.20507812 14.21875 C-5.13234115 15.81505091 -6.06558456 17.40787529 -7 19 C-7.95397067 15.59605919 -8.05552406 13.43045321 -7 10 C-6.02351983 8.97702078 -5.01868662 7.98095748 -4 7 C-2.57084038 4.71231643 -1.29575205 2.36809857 0 0 Z " fill="#202B1A" transform="translate(38,116)"/>
<path d="M0 0 C0.66 0.33 1.32 0.66 2 1 C1.55197021 1.3623877 1.10394043 1.72477539 0.64233398 2.09814453 C-1.42678495 3.77272695 -3.49464691 5.44885476 -5.5625 7.125 C-6.26697266 7.69476563 -6.97144531 8.26453125 -7.69726562 8.8515625 C-11.73585596 12.12710121 -15.70285694 15.45204908 -19.57006836 18.92919922 C-21 20 -21 20 -23 20 C-21.63147653 15.89442959 -18.76712285 14.21101714 -15.4375 11.6875 C-14.80505371 11.19983154 -14.17260742 10.71216309 -13.52099609 10.2097168 C-11.68655035 8.79855051 -9.8449817 7.3973519 -8 6 C-7.10667969 5.32195313 -6.21335937 4.64390625 -5.29296875 3.9453125 C-3.53520835 2.62144971 -1.76887859 1.30897015 0 0 Z " fill="#202C1A" transform="translate(107,46)"/>
<path d="M0 0 C0.33 0 0.66 0 1 0 C1.13277344 0.78246094 1.26554688 1.56492187 1.40234375 2.37109375 C1.57894531 3.38300781 1.75554688 4.39492188 1.9375 5.4375 C2.11152344 6.44683594 2.28554687 7.45617187 2.46484375 8.49609375 C2.74751097 10.9287438 2.74751097 10.9287438 4 12 C4.37768273 14.20118218 4.70178039 16.41165134 5 18.625 C5.165 19.83414062 5.33 21.04328125 5.5 22.2890625 C5.665 23.51367188 5.83 24.73828125 6 26 C6.32907681 28.33396602 6.66414337 30.66699592 7 33 C5.04569814 30.06854722 4.47815047 28.37033894 3.74609375 25 C3.42415039 23.5459375 3.42415039 23.5459375 3.09570312 22.0625 C2.87849609 21.051875 2.66128906 20.04125 2.4375 19 C1.99994045 16.99972779 1.5611907 14.99971546 1.12109375 13 C0.9295874 12.113125 0.73808105 11.22625 0.54077148 10.3125 C0.00515698 7.86230169 0.00515698 7.86230169 -1 5 C-0.5625 2.3125 -0.5625 2.3125 0 0 Z " fill="#0C1B05" transform="translate(3,292)"/>
<path d="M0 0 C1.6254308 0.14095064 3.25034051 0.28792087 4.875 0.4375 C5.77992188 0.51871094 6.68484375 0.59992187 7.6171875 0.68359375 C10 1 10 1 12 2 C12 2.99 12 3.98 12 5 C12.62648438 5.19335938 13.25296875 5.38671875 13.8984375 5.5859375 C14.71570313 5.84632812 15.53296875 6.10671875 16.375 6.375 C17.59316406 6.75785156 17.59316406 6.75785156 18.8359375 7.1484375 C21 8 21 8 23 10 C18.11052765 9.28613704 13.78355348 7.43937585 9.25 5.5625 C8.47011719 5.24990234 7.69023437 4.93730469 6.88671875 4.61523438 C5.77490234 4.15793945 5.77490234 4.15793945 4.640625 3.69140625 C3.96547852 3.41498291 3.29033203 3.13855957 2.59472656 2.85375977 C1 2 1 2 0 0 Z " fill="#121F0D" transform="translate(344,16)"/>
<path d="M0 0 C0 0.66 0 1.32 0 2 C-1.16015625 2.18175781 -1.16015625 2.18175781 -2.34375 2.3671875 C-9.47789001 3.51221336 -9.47789001 3.51221336 -16.5 5.1875 C-19.84120362 5.96313655 -20.89808515 5.95914472 -24 5 C-23.39671875 4.80664062 -22.7934375 4.61328125 -22.171875 4.4140625 C-21.37265625 4.15367188 -20.5734375 3.89328125 -19.75 3.625 C-18.96109375 3.36976562 -18.1721875 3.11453125 -17.359375 2.8515625 C-15.13203545 2.04765518 -13.10758554 1.0715783 -11 0 C-7.0372046 -1.14712498 -4.01907229 -0.84120118 0 0 Z " fill="#111F0A" transform="translate(208,5)"/>
<path d="M0 0 C-3.3 0.66 -6.6 1.32 -10 2 C-10 2.66 -10 3.32 -10 4 C-12.20751848 4.33868777 -14.41605911 4.67071689 -16.625 5 C-17.85476563 5.185625 -19.08453125 5.37125 -20.3515625 5.5625 C-23.6166027 5.95402516 -26.71712451 6.08080924 -30 6 C-30 5.67 -30 5.34 -30 5 C-25.75349123 3.96425527 -21.50234289 2.94900139 -17.25 1.9375 C-15.44015625 1.49567383 -15.44015625 1.49567383 -13.59375 1.04492188 C-12.43359375 0.77099609 -11.2734375 0.49707031 -10.078125 0.21484375 C-8.47565918 -0.17006226 -8.47565918 -0.17006226 -6.84082031 -0.56274414 C-4 -1 -4 -1 0 0 Z " fill="#0B1805" transform="translate(329,503)"/>
<path d="M0 0 C3.39417765 3.12621626 5.6062718 5.56541027 7 10 C6.34 10.66 5.68 11.32 5 12 C1.53134532 9.80318537 0.06966852 7.98694631 -1 4 C-0.625 1.6875 -0.625 1.6875 0 0 Z " fill="#1A2715" transform="translate(463,100)"/>
<path d="M0 0 C1.41174175 4.23522525 -0.2647314 7.14901655 -1.8125 11.125 C-2.08642578 11.86621094 -2.36035156 12.60742188 -2.64257812 13.37109375 C-4.73826581 18.86913291 -4.73826581 18.86913291 -7 20 C-7 17.36 -7 14.72 -7 12 C-6.34 12 -5.68 12 -5 12 C-4.731875 10.948125 -4.46375 9.89625 -4.1875 8.8125 C-3.1323171 5.42480754 -1.95273622 2.92910433 0 0 Z " fill="#0F1C09" transform="translate(21,155)"/>
<path d="M0 0 C0.99 0 1.98 0 3 0 C3 1.98 3 3.96 3 6 C3.66 6.33 4.32 6.66 5 7 C4.67 7.66 4.34 8.32 4 9 C1.4375 9.625 1.4375 9.625 -1 10 C-1.66 9.01 -2.32 8.02 -3 7 C-2.67 6.34 -2.34 5.68 -2 5 C-1.34 5 -0.68 5 0 5 C0 3.35 0 1.7 0 0 Z " fill="#86818B" transform="translate(322,0)"/>
<path d="M0 0 C3.44216672 2.6598561 3.99504674 5.90288286 5 10 C5.66 10 6.32 10 7 10 C8.0625 11.8125 8.0625 11.8125 9 14 C8.67 14.99 8.34 15.98 8 17 C7.67 15.68 7.34 14.36 7 13 C6.01 13 5.02 13 4 13 C3.32694982 11.39850114 2.66177773 9.79368971 2 8.1875 C1.62875 7.29417969 1.2575 6.40085937 0.875 5.48046875 C0 3 0 3 0 0 Z " fill="#192613" transform="translate(16,348)"/>
<path d="M0 0 C1.32 0.66 2.64 1.32 4 2 C-6.68484999 7.59682618 -6.68484999 7.59682618 -12 6 C-10.3767313 5.3291288 -8.75132422 4.66342971 -7.125 4 C-6.22007812 3.62875 -5.31515625 3.2575 -4.3828125 2.875 C-2 2 -2 2 0 2 C0 1.34 0 0.68 0 0 Z " fill="#0C1908" transform="translate(179,10)"/>
<path d="M0 0 C1.65 0.33 3.3 0.66 5 1 C1.97727468 4.25524265 -1.25718301 6.61820737 -5 9 C-5.66 8.67 -6.32 8.34 -7 8 C-6.67 7.01 -6.34 6.02 -6 5 C-4.0625 4.4375 -4.0625 4.4375 -2 4 C-1.34 3.34 -0.68 2.68 0 2 C0 1.34 0 0.68 0 0 Z " fill="#212D1C" transform="translate(116,37)"/>
<path d="M0 0 C1.43410153 3.78819273 0.51009497 6.06521279 -0.9375 9.75 C-1.31777344 10.73484375 -1.69804687 11.7196875 -2.08984375 12.734375 C-2.39019531 13.48203125 -2.69054687 14.2296875 -3 15 C-4.30660357 10.70272603 -3.6596762 7.39784135 -3 3 C-2.34 3 -1.68 3 -1 3 C-0.67 2.01 -0.34 1.02 0 0 Z " fill="#0E1C08" transform="translate(13,176)"/>
<path d="M0 0 C5.11365014 1.0681847 10.07227969 2.23107476 15 4 C12.64561267 5.42944945 11.51967567 6.08661261 8.75 5.625 C8.1725 5.41875 7.595 5.2125 7 5 C7 4.34 7 3.68 7 3 C4.69 2.34 2.38 1.68 0 1 C0 0.67 0 0.34 0 0 Z " fill="#1C2518" transform="translate(167,500)"/>
<path d="M0 0 C1 3 1 3 -0.4375 6.1875 C-1.2109375 7.5796875 -1.2109375 7.5796875 -2 9 C-2.66 9 -3.32 9 -4 9 C-3.835 8.236875 -3.67 7.47375 -3.5 6.6875 C-2.90854604 3.96403764 -2.90854604 3.96403764 -3 1 C-2.01 0.67 -1.02 0.34 0 0 Z " fill="#1F2B1A" transform="translate(25,143)"/>
<path d="M0 0 C2.97 0.33 5.94 0.66 9 1 C9.33 1.99 9.66 2.98 10 4 C6.7 3.34 3.4 2.68 0 2 C0 1.34 0 0.68 0 0 Z " fill="#121E0B" transform="translate(325,10)"/>
<path d="M0 0 C2.7710688 2.34591852 3.52059284 4.14776201 4.1875 7.6875 C4.34605469 8.49574219 4.50460937 9.30398437 4.66796875 10.13671875 C4.77753906 10.75160156 4.88710938 11.36648437 5 12 C2.35758939 9.50237902 1.11028431 7.50166589 0 4 C0 2.68 0 1.36 0 0 Z " fill="#1C2818" transform="translate(492,153)"/>
<path d="M0 0 C0.66 0 1.32 0 2 0 C2.66 1.65 3.32 3.3 4 5 C4.99 4.67 5.98 4.34 7 4 C6.67 4.99 6.34 5.98 6 7 C4.125 6.875 4.125 6.875 2 6 C0.75 2.9375 0.75 2.9375 0 0 Z " fill="#1D2818" transform="translate(479,128)"/>
<path d="M0 0 C0.66 0.33 1.32 0.66 2 1 C-0.33343353 4.50015029 -2.16917814 5.40382422 -6 7 C-6.66 6.67 -7.32 6.34 -8 6 C-5.36 4.02 -2.72 2.04 0 0 Z " fill="#0D1D07" transform="translate(115,42)"/>
<path d="M0 0 C0 0.66 0 1.32 0 2 C0.99 2.33 1.98 2.66 3 3 C1.54077307 2.88590407 0.08259402 2.75834456 -1.375 2.625 C-2.59316406 2.52058594 -2.59316406 2.52058594 -3.8359375 2.4140625 C-6 2 -6 2 -8 0 C-4.71023192 -1.09658936 -3.28696233 -0.79953138 0 0 Z " fill="#635F69" transform="translate(319,6)"/>
<path d="M0 0 C0.99 0 1.98 0 3 0 C3 1.98 3 3.96 3 6 C2.01 6 1.02 6 0 6 C0 4.02 0 2.04 0 0 Z " fill="#97919D" transform="translate(322,0)"/>
<path d="M0 0 C0.33 0 0.66 0 1 0 C1.08159574 4.16138263 0.98248524 7.9472484 0 12 C-0.33 12 -0.66 12 -1 12 C-1.33 9.36 -1.66 6.72 -2 4 C-1.34 4 -0.68 4 0 4 C0 2.68 0 1.36 0 0 Z " fill="#0A1A03" transform="translate(4,209)"/>
<path d="M0 0 C0.33 0 0.66 0 1 0 C1.98248524 4.0527516 2.08159574 7.83861737 2 12 C1.67 12 1.34 12 1 12 C0.67 8.04 0.34 4.08 0 0 Z " fill="#21291C" transform="translate(0,295)"/>
<path d="M0 0 C3.3 0.33 6.6 0.66 10 1 C10 1.33 10 1.66 10 2 C3.9453125 2.1953125 3.9453125 2.1953125 2 2 C1.34 1.34 0.68 0.68 0 0 Z " fill="#16200F" transform="translate(203,510)"/>
<path d="M0 0 C2.97 1.98 2.97 1.98 6 4 C5.01 4.33 4.02 4.66 3 5 C3 4.34 3 3.68 3 3 C2.01 2.67 1.02 2.34 0 2 C0 1.34 0 0.68 0 0 Z " fill="#1A2617" transform="translate(94,458)"/>
<path d="M0 0 C-4.455 0.495 -4.455 0.495 -9 1 C-9 0.67 -9 0.34 -9 0 C-5.32431536 -0.91892116 -3.83619425 -0.95904856 0 0 Z " fill="#141F0E" transform="translate(320,509)"/>
<path d="M0 0 C-0.33 0.66 -0.66 1.32 -1 2 C-2.98 2 -4.96 2 -7 2 C-4 0 -4 0 0 0 Z " fill="#192313" transform="translate(341,502)"/>
<path d="M0 0 C1.98 0.66 3.96 1.32 6 2 C2.25 3.125 2.25 3.125 0 2 C0 1.34 0 0.68 0 0 Z " fill="#1E2617" transform="translate(136,486)"/>
<path d="M0 0 C0.33 0 0.66 0 1 0 C0.67 2.97 0.34 5.94 0 9 C-0.95904856 5.16380575 -0.91892116 3.67568464 0 0 Z " fill="#162110" transform="translate(509,311)"/>
<path d="M0 0 C0.99 0.495 0.99 0.495 2 1 C2.40729228 3.32156597 2.74438677 5.6568787 3 8 C0.4345406 5.4345406 0.45953913 3.52313332 0 0 Z " fill="#1E2819" transform="translate(500,167)"/>
<path d="M0 0 C0.66 0.99 1.32 1.98 2 3 C1.34 3 0.68 3 0 3 C-0.33 3.99 -0.66 4.98 -1 6 C-0.67 4.02 -0.34 2.04 0 0 Z " fill="#1B2315" transform="translate(502,338)"/>
<path d="M0 0 C3.875 1.75 3.875 1.75 5 4 C1.125 2.25 1.125 2.25 0 0 Z " fill="#1A2714" transform="translate(423,58)"/>
<path d="M0 0 C0.66 0.66 1.32 1.32 2 2 C0.02 2.33 -1.96 2.66 -4 3 C-2.68 2.01 -1.36 1.02 0 0 Z " fill="#282B26" transform="translate(173,9)"/>
<path d="M0 0 C1.98 0.99 1.98 0.99 4 2 C3.01 2.495 3.01 2.495 2 3 C1.34 2.67 0.68 2.34 0 2 C0 1.34 0 0.68 0 0 Z " fill="#1F2A1B" transform="translate(86,452)"/>
<path d="M0 0 C0.99 1.485 0.99 1.485 2 3 C1.67 3.99 1.34 4.98 1 6 C0.67 4.02 0.34 2.04 0 0 Z " fill="#2B3028" transform="translate(9,335)"/>
<path d="M0 0 C0.99 1.485 0.99 1.485 2 3 C1.67 3.99 1.34 4.98 1 6 C0.67 4.02 0.34 2.04 0 0 Z " fill="#282D24" transform="translate(7,328)"/>
<path d="M0 0 C0.33 0 0.66 0 1 0 C1 2.31 1 4.62 1 7 C0.67 7 0.34 7 0 7 C0 4.69 0 2.38 0 0 Z " fill="#292A28" transform="translate(1,205)"/>
<path d="M0 0 C0.66 0.33 1.32 0.66 2 1 C0.02 1.99 0.02 1.99 -2 3 C-1.34 2.01 -0.68 1.02 0 0 Z " fill="#141F0F" transform="translate(420,456)"/>
<path d="M0 0 C0.66 0.33 1.32 0.66 2 1 C0.02 1.99 0.02 1.99 -2 3 C-1.34 2.01 -0.68 1.02 0 0 Z " fill="#141F10" transform="translate(426,451)"/>
<path d="M0 0 C0.33 0 0.66 0 1 0 C1 1.98 1 3.96 1 6 C0.67 6 0.34 6 0 6 C0 4.02 0 2.04 0 0 Z " fill="#101D0A" transform="translate(511,300)"/>
<path d="M0 0 C0.33 0 0.66 0 1 0 C1 1.98 1 3.96 1 6 C0.67 6 0.34 6 0 6 C0 4.02 0 2.04 0 0 Z " fill="#1C2616" transform="translate(0,212)"/>
<path d="M0 0 C0.33 0 0.66 0 1 0 C1 1.98 1 3.96 1 6 C0.67 6 0.34 6 0 6 C0 4.02 0 2.04 0 0 Z " fill="#192511" transform="translate(511,207)"/>
<path d="M0 0 C0.66 0.33 1.32 0.66 2 1 C0.02 1.99 0.02 1.99 -2 3 C-1.34 2.01 -0.68 1.02 0 0 Z " fill="#232D1F" transform="translate(102,47)"/>
<path d="M0 0 C1.98 0.495 1.98 0.495 4 1 C2.35 1.33 0.7 1.66 -1 2 C-0.67 1.34 -0.34 0.68 0 0 Z " fill="#262825" transform="translate(165,12)"/>
<path d="M0 0 C1.98 0 3.96 0 6 0 C6 0.33 6 0.66 6 1 C4.02 1 2.04 1 0 1 C0 0.67 0 0.34 0 0 Z " fill="#2C2F2B" transform="translate(206,1)"/>
<path d="M0 0 C1.65 0 3.3 0 5 0 C5 0.33 5 0.66 5 1 C3.35 1 1.7 1 0 1 C0 0.67 0 0.34 0 0 Z " fill="#162010" transform="translate(197,509)"/>
<path d="M0 0 C1.32 0.33 2.64 0.66 4 1 C3.01 1.495 3.01 1.495 2 2 C1.34 1.34 0.68 0.68 0 0 Z " fill="#192412" transform="translate(327,505)"/>
<path d="M0 0 C0.33 0.99 0.66 1.98 1 3 C0.01 3.495 0.01 3.495 -1 4 C-0.67 2.68 -0.34 1.36 0 0 Z " fill="#162110" transform="translate(493,361)"/>
<path d="M0 0 C0.33 0 0.66 0 1 0 C1 1.65 1 3.3 1 5 C0.67 5 0.34 5 0 5 C0 3.35 0 1.7 0 0 Z " fill="#2E312A" transform="translate(3,312)"/>
<path d="M0 0 C0.33 0 0.66 0 1 0 C1 1.65 1 3.3 1 5 C0.67 5 0.34 5 0 5 C0 3.35 0 1.7 0 0 Z " fill="#12200D" transform="translate(510,306)"/>
<path d="M0 0 C0.99 1.485 0.99 1.485 2 3 C1.01 3.495 1.01 3.495 0 4 C0 2.68 0 1.36 0 0 Z " fill="#1D2917" transform="translate(510,203)"/>
<path d="M0 0 C1.65 0 3.3 0 5 0 C5 0.33 5 0.66 5 1 C3.35 1 1.7 1 0 1 C0 0.67 0 0.34 0 0 Z " fill="#2C2F28" transform="translate(197,3)"/>
<path d="M0 0 C0.33 0.66 0.66 1.32 1 2 C1.66 2.33 2.32 2.66 3 3 C2.01 3 1.02 3 0 3 C0 2.01 0 1.02 0 0 Z " fill="#282929" transform="translate(202,0)"/>
<path d="M0 0 C4 1 4 1 4 1 Z " fill="#152010" transform="translate(193,508)"/>
<path d="M0 0 C4 1 4 1 4 1 Z " fill="#15200E" transform="translate(320,507)"/>
<path d="M0 0 C4 1 4 1 4 1 Z " fill="#162113" transform="translate(189,507)"/>
<path d="M0 0 C4 1 4 1 4 1 Z " fill="#192413" transform="translate(182,505)"/>
<path d="M0 0 C0.99 0 1.98 0 3 0 C2.67 0.66 2.34 1.32 2 2 C1.34 1.34 0.68 0.68 0 0 Z " fill="#1E2819" transform="translate(349,498)"/>
<path d="M0 0 C0.66 0 1.32 0 2 0 C2 0.66 2 1.32 2 2 C1.34 2 0.68 2 0 2 C0 1.34 0 0.68 0 0 Z " fill="#1F201E" transform="translate(375,491)"/>
<path d="M0 0 C0.99 0.33 1.98 0.66 3 1 C2.01 1 1.02 1 0 1 C0 0.67 0 0.34 0 0 Z " fill="#172412" transform="translate(104,466)"/>
<path d="M0 0 C0.66 0.33 1.32 0.66 2 1 C1.01 1 0.02 1 -1 1 C-0.67 0.67 -0.34 0.34 0 0 Z " fill="#131F0E" transform="translate(407,466)"/>
<path d="M0 0 C0.99 0.495 0.99 0.495 2 1 C1.67 1.66 1.34 2.32 1 3 C0.67 2.01 0.34 1.02 0 0 Z " fill="#182312" transform="translate(57,422)"/>
<path d="M0 0 C0 3 0 3 0 3 Z " fill="#131E0E" transform="translate(459,417)"/>
<path d="M0 0 C0.66 0 1.32 0 2 0 C2 0.66 2 1.32 2 2 C1.34 2 0.68 2 0 2 C0 1.34 0 0.68 0 0 Z " fill="#202220" transform="translate(491,372)"/>
<path d="M0 0 C1 4 1 4 1 4 Z " fill="#182412" transform="translate(509,198)"/>
<path d="M0 0 C1 4 1 4 1 4 Z " fill="#192513" transform="translate(508,193)"/>
<path d="M0 0 C1 4 1 4 1 4 Z " fill="#1D2717" transform="translate(503,175)"/>
<path d="M0 0 C1 4 1 4 1 4 Z " fill="#2C3027" transform="translate(9,175)"/>
<path d="M0 0 C0.99 0.495 0.99 0.495 2 1 C1.67 1.66 1.34 2.32 1 3 C0.67 2.01 0.34 1.02 0 0 Z " fill="#1B2816" transform="translate(458,93)"/>
<path d="M0 0 C0 3 0 3 0 3 Z " fill="#242C20" transform="translate(54,93)"/>
<path d="M0 0 C0.99 0.495 0.99 0.495 2 1 C1.67 1.66 1.34 2.32 1 3 C0.67 2.01 0.34 1.02 0 0 Z " fill="#192616" transform="translate(453,87)"/>
<path d="M0 0 C0.66 0.33 1.32 0.66 2 1 C1.01 1 0.02 1 -1 1 C-0.67 0.67 -0.34 0.34 0 0 Z " fill="#252C22" transform="translate(98,50)"/>
<path d="M0 0 C0.99 0.33 1.98 0.66 3 1 C2.01 1 1.02 1 0 1 C0 0.67 0 0.34 0 0 Z " fill="#1A2615" transform="translate(413,50)"/>
<path d="M0 0 C0.99 0.33 1.98 0.66 3 1 C2.01 1 1.02 1 0 1 C0 0.67 0 0.34 0 0 Z " fill="#1B2715" transform="translate(406,45)"/>
<path d="M0 0 C0.33 0.66 0.66 1.32 1 2 C0.01 1.67 -0.98 1.34 -2 1 C-1.34 0.67 -0.68 0.34 0 0 Z " fill="#545850" transform="translate(368,20)"/>
<path d="M0 0 C0.66 0 1.32 0 2 0 C2 0.66 2 1.32 2 2 C1.34 2 0.68 2 0 2 C0 1.34 0 0.68 0 0 Z " fill="#212220" transform="translate(140,17)"/>
<path d="M0 0 C0.99 0.33 1.98 0.66 3 1 C2.01 1 1.02 1 0 1 C0 0.67 0 0.34 0 0 Z " fill="#72766E" transform="translate(346,12)"/>
<path d="M0 0 C4 1 4 1 4 1 Z " fill="#6E7667" transform="translate(327,7)"/>
<path d="M0 0 C4 1 4 1 4 1 Z " fill="#262A22" transform="translate(182,7)"/>
<path d="M0 0 C4 1 4 1 4 1 Z " fill="#282B25" transform="translate(189,5)"/>
<path d="M0 0 C4 1 4 1 4 1 Z " fill="#837B8D" transform="translate(315,4)"/>
<path d="M0 0 C4 1 4 1 4 1 Z " fill="#2F312D" transform="translate(193,4)"/>
<path d="M0 0 C4 1 4 1 4 1 Z " fill="#24301D" transform="translate(213,0)"/>
<path d="M0 0 C3 1 3 1 3 1 Z " fill="#16220F" transform="translate(324,506)"/>
<path d="M0 0 C3 1 3 1 3 1 Z " fill="#172413" transform="translate(186,506)"/>
<path d="M0 0 C3 1 3 1 3 1 Z " fill="#162310" transform="translate(331,504)"/>
<path d="M0 0 C3 1 3 1 3 1 Z " fill="#172312" transform="translate(341,501)"/>
<path d="M0 0 C3 1 3 1 3 1 Z " fill="#172310" transform="translate(346,499)"/>
<path d="M0 0 C3 1 3 1 3 1 Z " fill="#192414" transform="translate(164,499)"/>
<path d="M0 0 C3 1 3 1 3 1 Z " fill="#141F0D" transform="translate(356,495)"/>
<path d="M0 0 C3 1 3 1 3 1 Z " fill="#1A2515" transform="translate(154,495)"/>
<path d="" fill="#20211F" transform="translate(0,0)"/>
<path d="M0 0 C0.33 0.66 0.66 1.32 1 2 C0.34 1.67 -0.32 1.34 -1 1 C-0.67 0.67 -0.34 0.34 0 0 Z " fill="#111F0C" transform="translate(433,445)"/>
<path d="M0 0 C0.33 0.66 0.66 1.32 1 2 C0.34 1.67 -0.32 1.34 -1 1 C-0.67 0.67 -0.34 0.34 0 0 Z " fill="#121F0E" transform="translate(446,432)"/>
<path d="M0 0 C0.33 0.66 0.66 1.32 1 2 C0.34 1.67 -0.32 1.34 -1 1 C-0.67 0.67 -0.34 0.34 0 0 Z " fill="#15210D" transform="translate(484,380)"/>
<path d="" fill="#17240F" transform="translate(0,0)"/>
<path d="" fill="#262B23" transform="translate(0,0)"/>
<path d="" fill="#162310" transform="translate(0,0)"/>
<path d="" fill="#262D21" transform="translate(0,0)"/>
<path d="" fill="#2A3024" transform="translate(0,0)"/>
<path d="" fill="#15210E" transform="translate(0,0)"/>
<path d="" fill="#152210" transform="translate(0,0)"/>
<path d="" fill="#2B3026" transform="translate(0,0)"/>
<path d="" fill="#2D3126" transform="translate(0,0)"/>
<path d="" fill="#13200D" transform="translate(0,0)"/>
<path d="" fill="#383B34" transform="translate(0,0)"/>
<path d="" fill="#353636" transform="translate(0,0)"/>
<path d="" fill="#2F2F30" transform="translate(0,0)"/>
<path d="" fill="#192514" transform="translate(0,0)"/>
<path d="" fill="#1B2716" transform="translate(0,0)"/>
<path d="" fill="#313231" transform="translate(0,0)"/>
<path d="" fill="#2E312A" transform="translate(0,0)"/>
<path d="" fill="#1E271A" transform="translate(0,0)"/>
<path d="M0 0 C0.99 0.495 0.99 0.495 2 1 C1.01 1.495 1.01 1.495 0 2 C0 1.34 0 0.68 0 0 Z " fill="#202A1E" transform="translate(87,59)"/>
<path d="M0 0 C3 1 3 1 3 1 Z " fill="#222821" transform="translate(154,17)"/>
<path d="M0 0 C3 1 3 1 3 1 Z " fill="#5A6155" transform="translate(354,16)"/>
<path d="M0 0 C3 1 3 1 3 1 Z " fill="#282A28" transform="translate(161,14)"/>
<path d="M0 0 C3 1 3 1 3 1 Z " fill="#6E7567" transform="translate(341,11)"/>
<path d="M0 0 C3 1 3 1 3 1 Z " fill="#21271E" transform="translate(176,9)"/>
<path d="M0 0 C3 1 3 1 3 1 Z " fill="#687162" transform="translate(331,8)"/>
<path d="M0 0 C3 1 3 1 3 1 Z " fill="#282C25" transform="translate(179,8)"/>
<path d="M0 0 C2 1 2 1 2 1 Z " fill="#172210" transform="translate(344,500)"/>
<path d="M0 0 C2 1 2 1 2 1 Z " fill="#1A2515" transform="translate(162,498)"/>
<path d="M0 0 C2 1 2 1 2 1 Z " fill="#182610" transform="translate(352,497)"/>
<path d="M0 0 C2 1 2 1 2 1 Z " fill="#1D2717" transform="translate(159,497)"/>
<path d="M0 0 C2 1 2 1 2 1 Z " fill="#142010" transform="translate(354,496)"/>
<path d="M0 0 C2 1 2 1 2 1 Z " fill="#1A2515" transform="translate(157,496)"/>
<path d="M0 0 C2 1 2 1 2 1 Z " fill="#1C2617" transform="translate(152,494)"/>
<path d="M0 0 C2 1 2 1 2 1 Z " fill="#14210F" transform="translate(361,493)"/>
<path d="M0 0 C2 1 2 1 2 1 Z " fill="#1A2515" transform="translate(150,493)"/>
<path d="" fill="#242523" transform="translate(0,0)"/>
<path d="M0 0 C2 1 2 1 2 1 Z " fill="#13200F" transform="translate(363,492)"/>
<path d="M0 0 C2 1 2 1 2 1 Z " fill="#14200D" transform="translate(365,491)"/>
<path d="M0 0 C2 1 2 1 2 1 Z " fill="#17240F" transform="translate(146,491)"/>
<path d="M0 0 C2 1 2 1 2 1 Z " fill="#14210C" transform="translate(367,490)"/>
<path d="M0 0 C2 1 2 1 2 1 Z " fill="#182310" transform="translate(144,490)"/>
<path d="M0 0 C2 1 2 1 2 1 Z " fill="#14210B" transform="translate(369,489)"/>
<path d="M0 0 C2 1 2 1 2 1 Z " fill="#17240F" transform="translate(142,489)"/>
<path d="M0 0 C2 1 2 1 2 1 Z " fill="#1A2612" transform="translate(134,485)"/>
<path d="M0 0 C2 1 2 1 2 1 Z " fill="#1D2916" transform="translate(132,484)"/>
<path d="M0 0 C2 1 2 1 2 1 Z " fill="#162210" transform="translate(401,470)"/>
<path d="M0 0 C2 1 2 1 2 1 Z " fill="#14200F" transform="translate(404,468)"/>
<path d="M0 0 C2 1 2 1 2 1 Z " fill="#182511" transform="translate(107,468)"/>
<path d="M0 0 C2 1 2 1 2 1 Z " fill="#141F0F" transform="translate(410,464)"/>
<path d="M0 0 C2 1 2 1 2 1 Z " fill="#172412" transform="translate(101,464)"/>
<path d="M0 0 C2 1 2 1 2 1 Z " fill="#152010" transform="translate(415,460)"/>
<path d="M0 0 C2 1 2 1 2 1 Z " fill="#1A2416" transform="translate(92,457)"/>
<path d="" fill="#2F322C" transform="translate(0,0)"/>
<path d="M0 0 C2 1 2 1 2 1 Z " fill="#212222" transform="translate(59,429)"/>
<path d="" fill="#131F11" transform="translate(0,0)"/>
<path d="" fill="#1A2513" transform="translate(0,0)"/>
<path d="" fill="#1C2818" transform="translate(0,0)"/>
<path d="" fill="#242424" transform="translate(0,0)"/>
<path d="" fill="#14200F" transform="translate(0,0)"/>
<path d="" fill="#14200F" transform="translate(0,0)"/>
<path d="M0 0 C2 1 2 1 2 1 Z " fill="#212221" transform="translate(19,368)"/>
<path d="" fill="#2F352A" transform="translate(0,0)"/>
<path d="" fill="#2E3429" transform="translate(0,0)"/>
<path d="" fill="#2A3028" transform="translate(0,0)"/>
<path d="" fill="#293127" transform="translate(0,0)"/>
<path d="" fill="#2A2F27" transform="translate(0,0)"/>
<path d="" fill="#152111" transform="translate(0,0)"/>
<path d="" fill="#162211" transform="translate(0,0)"/>
<path d="" fill="#162211" transform="translate(0,0)"/>
<path d="" fill="#272D22" transform="translate(0,0)"/>
<path d="" fill="#212221" transform="translate(0,0)"/>
<path d="" fill="#39393A" transform="translate(0,0)"/>
<path d="" fill="#2E302D" transform="translate(0,0)"/>
<path d="" fill="#353534" transform="translate(0,0)"/>
<path d="" fill="#30322E" transform="translate(0,0)"/>
<path d="" fill="#2B2F29" transform="translate(0,0)"/>
<path d="" fill="#212B1B" transform="translate(0,0)"/>
<path d="" fill="#2A2F26" transform="translate(0,0)"/>
<path d="" fill="#313230" transform="translate(0,0)"/>
<path d="" fill="#202B1B" transform="translate(0,0)"/>
<path d="" fill="#2C3126" transform="translate(0,0)"/>
<path d="" fill="#1B2617" transform="translate(0,0)"/>
<path d="" fill="#21221F" transform="translate(0,0)"/>
<path d="" fill="#2D302B" transform="translate(0,0)"/>
<path d="" fill="#1E291A" transform="translate(0,0)"/>
<path d="" fill="#292D26" transform="translate(0,0)"/>
<path d="" fill="#1D271B" transform="translate(0,0)"/>
<path d="" fill="#272B25" transform="translate(0,0)"/>
<path d="" fill="#2A2C27" transform="translate(0,0)"/>
<path d="M0 0 C2 1 2 1 2 1 Z " fill="#212320" transform="translate(17,148)"/>
<path d="M0 0 C2 1 2 1 2 1 Z " fill="#252524" transform="translate(19,146)"/>
<path d="M0 0 C2 1 2 1 2 1 Z " fill="#262725" transform="translate(490,141)"/>
<path d="M0 0 C2 1 2 1 2 1 Z " fill="#20221F" transform="translate(491,132)"/>
<path d="M0 0 C2 1 2 1 2 1 Z " fill="#232423" transform="translate(477,117)"/>
<path d="M0 0 C2 1 2 1 2 1 Z " fill="#1F201E" transform="translate(57,82)"/>
<path d="M0 0 C2 1 2 1 2 1 Z " fill="#1B2A12" transform="translate(447,81)"/>
<path d="" fill="#262726" transform="translate(0,0)"/>
<path d="M0 0 C2 1 2 1 2 1 Z " fill="#222B1F" transform="translate(93,54)"/>
<path d="M0 0 C2 1 2 1 2 1 Z " fill="#212C1B" transform="translate(104,46)"/>
<path d="M0 0 C2 1 2 1 2 1 Z " fill="#1F2B16" transform="translate(107,44)"/>
<path d="M0 0 C2 1 2 1 2 1 Z " fill="#4F514D" transform="translate(372,23)"/>
<path d="M0 0 C2 1 2 1 2 1 Z " fill="#252824" transform="translate(141,23)"/>
<path d="M0 0 C2 1 2 1 2 1 Z " fill="#242A20" transform="translate(144,22)"/>
<path d="M0 0 C2 1 2 1 2 1 Z " fill="#565D52" transform="translate(364,20)"/>
<path d="M0 0 C2 1 2 1 2 1 Z " fill="#272926" transform="translate(147,20)"/>
<path d="M0 0 C2 1 2 1 2 1 Z " fill="#5A6157" transform="translate(362,19)"/>
<path d="M0 0 C2 1 2 1 2 1 Z " fill="#232721" transform="translate(150,19)"/>
<path d="" fill="#50514F" transform="translate(0,0)"/>
<path d="M0 0 C2 1 2 1 2 1 Z " fill="#525A4F" transform="translate(359,18)"/>
<path d="M0 0 C2 1 2 1 2 1 Z " fill="#242923" transform="translate(152,18)"/>
<path d="M0 0 C2 1 2 1 2 1 Z " fill="#575D52" transform="translate(357,17)"/>
<path d="M0 0 C2 1 2 1 2 1 Z " fill="#242922" transform="translate(157,16)"/>
<path d="M0 0 C2 1 2 1 2 1 Z " fill="#272C23" transform="translate(159,15)"/>
<path d="M0 0 C2 1 2 1 2 1 Z " fill="#7E837A" transform="translate(339,10)"/>
<path d="M0 0 C2 1 2 1 2 1 Z " fill="#2B2F27" transform="translate(187,6)"/>
<path d="" fill="#1F201E" transform="translate(0,0)"/>
<path d="" fill="#282828" transform="translate(0,0)"/>
<path d="" fill="#131F0F" transform="translate(0,0)"/>
<path d="" fill="#162311" transform="translate(0,0)"/>
<path d="" fill="#14200D" transform="translate(0,0)"/>
<path d="" fill="#13200C" transform="translate(0,0)"/>
<path d="" fill="#212220" transform="translate(0,0)"/>
<path d="" fill="#1A2815" transform="translate(0,0)"/>
<path d="" fill="#1F201E" transform="translate(0,0)"/>
<path d="" fill="#14210F" transform="translate(0,0)"/>
<path d="" fill="#212220" transform="translate(0,0)"/>
<path d="" fill="#232422" transform="translate(0,0)"/>
<path d="" fill="#15210E" transform="translate(0,0)"/>
<path d="" fill="#172413" transform="translate(0,0)"/>
<path d="" fill="#212220" transform="translate(0,0)"/>
<path d="" fill="#1C2A13" transform="translate(0,0)"/>
<path d="" fill="#15210E" transform="translate(0,0)"/>
<path d="" fill="#162312" transform="translate(0,0)"/>
<path d="" fill="#14210E" transform="translate(0,0)"/>
<path d="" fill="#182412" transform="translate(0,0)"/>
<path d="" fill="#272C25" transform="translate(0,0)"/>
<path d="" fill="#14200F" transform="translate(0,0)"/>
<path d="" fill="#142110" transform="translate(0,0)"/>
<path d="" fill="#14200F" transform="translate(0,0)"/>
<path d="" fill="#16230F" transform="translate(0,0)"/>
<path d="" fill="#121F0D" transform="translate(0,0)"/>
<path d="" fill="#13200F" transform="translate(0,0)"/>
<path d="" fill="#2C2B2C" transform="translate(0,0)"/>
<path d="" fill="#14200F" transform="translate(0,0)"/>
<path d="" fill="#1A2714" transform="translate(0,0)"/>
<path d="" fill="#14210E" transform="translate(0,0)"/>
<path d="" fill="#182610" transform="translate(0,0)"/>
<path d="" fill="#13200D" transform="translate(0,0)"/>
<path d="" fill="#1F2A1B" transform="translate(0,0)"/>
<path d="" fill="#182413" transform="translate(0,0)"/>
<path d="" fill="#172311" transform="translate(0,0)"/>
<path d="" fill="#1C2913" transform="translate(0,0)"/>
<path d="" fill="#15240F" transform="translate(0,0)"/>
<path d="" fill="#12200B" transform="translate(0,0)"/>
<path d="" fill="#16230F" transform="translate(0,0)"/>
<path d="" fill="#172410" transform="translate(0,0)"/>
<path d="" fill="#182511" transform="translate(0,0)"/>
<path d="" fill="#182513" transform="translate(0,0)"/>
<path d="" fill="#2D2E2B" transform="translate(0,0)"/>
<path d="" fill="#182514" transform="translate(0,0)"/>
<path d="" fill="#132010" transform="translate(0,0)"/>
<path d="" fill="#172414" transform="translate(0,0)"/>
<path d="" fill="#132010" transform="translate(0,0)"/>
<path d="" fill="#172314" transform="translate(0,0)"/>
<path d="" fill="#212220" transform="translate(0,0)"/>
<path d="" fill="#142011" transform="translate(0,0)"/>
<path d="" fill="#162212" transform="translate(0,0)"/>
<path d="" fill="#152111" transform="translate(0,0)"/>
<path d="" fill="#172313" transform="translate(0,0)"/>
<path d="" fill="#152112" transform="translate(0,0)"/>
<path d="" fill="#152211" transform="translate(0,0)"/>
<path d="" fill="#152311" transform="translate(0,0)"/>
<path d="" fill="#13210F" transform="translate(0,0)"/>
<path d="" fill="#162413" transform="translate(0,0)"/>
<path d="" fill="#162412" transform="translate(0,0)"/>
<path d="" fill="#20211F" transform="translate(0,0)"/>
<path d="" fill="#142210" transform="translate(0,0)"/>
<path d="" fill="#262A25" transform="translate(0,0)"/>
<path d="" fill="#121E0D" transform="translate(0,0)"/>
<path d="" fill="#14220E" transform="translate(0,0)"/>
<path d="" fill="#13200D" transform="translate(0,0)"/>
<path d="" fill="#15210E" transform="translate(0,0)"/>
<path d="" fill="#17230E" transform="translate(0,0)"/>
<path d="" fill="#162210" transform="translate(0,0)"/>
<path d="" fill="#1A2615" transform="translate(0,0)"/>
<path d="" fill="#172313" transform="translate(0,0)"/>
<path d="" fill="#1C2717" transform="translate(0,0)"/>
<path d="" fill="#162214" transform="translate(0,0)"/>
<path d="" fill="#1C261A" transform="translate(0,0)"/>
<path d="" fill="#1F211E" transform="translate(0,0)"/>
<path d="" fill="#1A2619" transform="translate(0,0)"/>
<path d="" fill="#1F201E" transform="translate(0,0)"/>
<path d="" fill="#22281F" transform="translate(0,0)"/>
<path d="" fill="#111D0E" transform="translate(0,0)"/>
<path d="" fill="#111E0C" transform="translate(0,0)"/>
<path d="" fill="#131E0D" transform="translate(0,0)"/>
<path d="" fill="#182411" transform="translate(0,0)"/>
<path d="" fill="#20201F" transform="translate(0,0)"/>
<path d="" fill="#141F0F" transform="translate(0,0)"/>
<path d="" fill="#1B2517" transform="translate(0,0)"/>
<path d="" fill="#1B2419" transform="translate(0,0)"/>
<path d="" fill="#272C27" transform="translate(0,0)"/>
<path d="" fill="#2D2C2E" transform="translate(0,0)"/>
<path d="" fill="#13200E" transform="translate(0,0)"/>
<path d="" fill="#192512" transform="translate(0,0)"/>
<path d="" fill="#172311" transform="translate(0,0)"/>
<path d="" fill="#1D2817" transform="translate(0,0)"/>
<path d="" fill="#292A2A" transform="translate(0,0)"/>
<path d="" fill="#1C2816" transform="translate(0,0)"/>
<path d="" fill="#1C2818" transform="translate(0,0)"/>
<path d="" fill="#152110" transform="translate(0,0)"/>
<path d="" fill="#182612" transform="translate(0,0)"/>
<path d="" fill="#1B2615" transform="translate(0,0)"/>
<path d="" fill="#202220" transform="translate(0,0)"/>
<path d="" fill="#1F201E" transform="translate(0,0)"/>
<path d="" fill="#192512" transform="translate(0,0)"/>
<path d="" fill="#1F291C" transform="translate(0,0)"/>
<path d="" fill="#142110" transform="translate(0,0)"/>
<path d="" fill="#272926" transform="translate(0,0)"/>
<path d="" fill="#14200F" transform="translate(0,0)"/>
<path d="" fill="#263022" transform="translate(0,0)"/>
<path d="" fill="#162311" transform="translate(0,0)"/>
<path d="" fill="#131E0F" transform="translate(0,0)"/>
<path d="" fill="#121F0F" transform="translate(0,0)"/>
<path d="" fill="#293224" transform="translate(0,0)"/>
<path d="" fill="#262D24" transform="translate(0,0)"/>
<path d="" fill="#202220" transform="translate(0,0)"/>
<path d="" fill="#1F201E" transform="translate(0,0)"/>
<path d="" fill="#212220" transform="translate(0,0)"/>
<path d="" fill="#242424" transform="translate(0,0)"/>
<path d="" fill="#29292A" transform="translate(0,0)"/>
<path d="" fill="#1F201E" transform="translate(0,0)"/>
<path d="" fill="#232322" transform="translate(0,0)"/>
<path d="" fill="#212220" transform="translate(0,0)"/>
<path d="" fill="#1F201E" transform="translate(0,0)"/>
<path d="" fill="#232D1E" transform="translate(0,0)"/>
<path d="" fill="#1F201E" transform="translate(0,0)"/>
<path d="" fill="#1D2716" transform="translate(0,0)"/>
<path d="" fill="#21221F" transform="translate(0,0)"/>
<path d="" fill="#2D332B" transform="translate(0,0)"/>
<path d="" fill="#20221F" transform="translate(0,0)"/>
<path d="" fill="#262726" transform="translate(0,0)"/>
<path d="" fill="#172312" transform="translate(0,0)"/>
<path d="" fill="#272726" transform="translate(0,0)"/>
<path d="" fill="#162413" transform="translate(0,0)"/>
<path d="" fill="#212321" transform="translate(0,0)"/>
<path d="" fill="#262724" transform="translate(0,0)"/>
<path d="" fill="#232422" transform="translate(0,0)"/>
<path d="" fill="#232E1A" transform="translate(0,0)"/>
<path d="" fill="#1F2C1C" transform="translate(0,0)"/>
<path d="" fill="#1F2917" transform="translate(0,0)"/>
<path d="" fill="#1D291A" transform="translate(0,0)"/>
<path d="" fill="#1F2A1B" transform="translate(0,0)"/>
<path d="" fill="#1F201E" transform="translate(0,0)"/>
<path d="" fill="#182613" transform="translate(0,0)"/>
<path d="" fill="#1D2919" transform="translate(0,0)"/>
<path d="" fill="#1D2818" transform="translate(0,0)"/>
<path d="" fill="#192611" transform="translate(0,0)"/>
<path d="" fill="#262F1F" transform="translate(0,0)"/>
<path d="" fill="#16240F" transform="translate(0,0)"/>
<path d="" fill="#212C18" transform="translate(0,0)"/>
<path d="" fill="#2D332E" transform="translate(0,0)"/>
<path d="" fill="#2C322D" transform="translate(0,0)"/>
<path d="" fill="#212C1E" transform="translate(0,0)"/>
<path d="" fill="#212B1C" transform="translate(0,0)"/>
<path d="" fill="#1E2A16" transform="translate(0,0)"/>
<path d="" fill="#2D3528" transform="translate(0,0)"/>
<path d="" fill="#192810" transform="translate(0,0)"/>
<path d="" fill="#162310" transform="translate(0,0)"/>
<path d="" fill="#20211F" transform="translate(0,0)"/>
<path d="" fill="#152310" transform="translate(0,0)"/>
<path d="" fill="#152011" transform="translate(0,0)"/>
<path d="" fill="#142110" transform="translate(0,0)"/>
<path d="" fill="#142111" transform="translate(0,0)"/>
<path d="" fill="#142113" transform="translate(0,0)"/>
<path d="" fill="#152211" transform="translate(0,0)"/>
<path d="" fill="#132213" transform="translate(0,0)"/>
<path d="" fill="#262727" transform="translate(0,0)"/>
<path d="" fill="#152312" transform="translate(0,0)"/>
<path d="" fill="#142014" transform="translate(0,0)"/>
<path d="" fill="#142111" transform="translate(0,0)"/>
<path d="" fill="#142114" transform="translate(0,0)"/>
<path d="" fill="#142111" transform="translate(0,0)"/>
<path d="" fill="#212220" transform="translate(0,0)"/>
<path d="" fill="#152111" transform="translate(0,0)"/>
<path d="" fill="#142110" transform="translate(0,0)"/>
<path d="" fill="#142210" transform="translate(0,0)"/>
<path d="" fill="#132110" transform="translate(0,0)"/>
<path d="" fill="#152210" transform="translate(0,0)"/>
<path d="" fill="#16240F" transform="translate(0,0)"/>
<path d="" fill="#182610" transform="translate(0,0)"/>
<path d="" fill="#1C2B12" transform="translate(0,0)"/>
<path d="" fill="#19250E" transform="translate(0,0)"/>
<path d="" fill="#202D1B" transform="translate(0,0)"/>
<path d="" fill="#222E1E" transform="translate(0,0)"/>
<path d="" fill="#1F2917" transform="translate(0,0)"/>
<path d="" fill="#1A2614" transform="translate(0,0)"/>
<path d="" fill="#242E1D" transform="translate(0,0)"/>
<path d="" fill="#1C281A" transform="translate(0,0)"/>
<path d="" fill="#282E24" transform="translate(0,0)"/>
<path d="" fill="#1C271A" transform="translate(0,0)"/>
<path d="" fill="#282F28" transform="translate(0,0)"/>
<path d="" fill="#1C2614" transform="translate(0,0)"/>
<path d="" fill="#1D2815" transform="translate(0,0)"/>
<path d="" fill="#232C19" transform="translate(0,0)"/>
<path d="" fill="#212220" transform="translate(0,0)"/>
<path d="" fill="#252526" transform="translate(0,0)"/>
<path d="" fill="#202A1D" transform="translate(0,0)"/>
<path d="" fill="#1E2A1B" transform="translate(0,0)"/>
<path d="" fill="#1B2914" transform="translate(0,0)"/>
<path d="" fill="#1C2719" transform="translate(0,0)"/>
<path d="" fill="#162410" transform="translate(0,0)"/>
<path d="" fill="#17240F" transform="translate(0,0)"/>
<path d="" fill="#1E291B" transform="translate(0,0)"/>
<path d="" fill="#232423" transform="translate(0,0)"/>
<path d="" fill="#192511" transform="translate(0,0)"/>
<path d="" fill="#1E2A1A" transform="translate(0,0)"/>
<path d="" fill="#1A2515" transform="translate(0,0)"/>
<path d="" fill="#15210F" transform="translate(0,0)"/>
<path d="" fill="#1B2619" transform="translate(0,0)"/>
<path d="" fill="#212220" transform="translate(0,0)"/>
<path d="" fill="#192613" transform="translate(0,0)"/>
<path d="" fill="#1F201E" transform="translate(0,0)"/>
<path d="" fill="#232E22" transform="translate(0,0)"/>
<path d="" fill="#263220" transform="translate(0,0)"/>
<path d="" fill="#283022" transform="translate(0,0)"/>
<path d="" fill="#242623" transform="translate(0,0)"/>
<path d="" fill="#20221F" transform="translate(0,0)"/>
<path d="" fill="#212220" transform="translate(0,0)"/>
<path d="" fill="#20211F" transform="translate(0,0)"/>
<path d="" fill="#232422" transform="translate(0,0)"/>
<path d="" fill="#4A5148" transform="translate(0,0)"/>
<path d="" fill="#212220" transform="translate(0,0)"/>
<path d="" fill="#20211F" transform="translate(0,0)"/>
<path d="" fill="#272B25" transform="translate(0,0)"/>
<path d="" fill="#4F504E" transform="translate(0,0)"/>
<path d="" fill="#5A6257" transform="translate(0,0)"/>
<path d="" fill="#60675D" transform="translate(0,0)"/>
<path d="" fill="#5B6157" transform="translate(0,0)"/>
<path d="" fill="#1F201E" transform="translate(0,0)"/>
<path d="" fill="#979896" transform="translate(0,0)"/>
<path d="" fill="#616A5B" transform="translate(0,0)"/>
<path d="" fill="#1F201E" transform="translate(0,0)"/>
<path d="" fill="#898989" transform="translate(0,0)"/>
<path d="" fill="#888888" transform="translate(0,0)"/>
<path d="" fill="#20211F" transform="translate(0,0)"/>
</svg>
